<?xml version="1.0" encoding="UTF-8" standalone="no"?>
<svg
   xmlns:dc="http://purl.org/dc/elements/1.1/"
   xmlns:cc="http://creativecommons.org/ns#"
   xmlns:rdf="http://www.w3.org/1999/02/22-rdf-syntax-ns#"
   xmlns:svg="http://www.w3.org/2000/svg"
   xmlns="http://www.w3.org/2000/svg"
   xmlns:sodipodi="http://sodipodi.sourceforge.net/DTD/sodipodi-0.dtd"
   xmlns:inkscape="http://www.inkscape.org/namespaces/inkscape"
   version="1.1"
   width="199.53999"
   height="77.049995"
   viewBox="0 0 2217.1111 856.11103"
   id="svg2"
   inkscape:version="0.48.1 r9760"
   sodipodi:docname="rc-circuit.pdf">
  <metadata
     id="metadata454">
    <rdf:RDF>
      <cc:Work
         rdf:about="">
        <dc:format>image/svg+xml</dc:format>
        <dc:type
           rdf:resource="http://purl.org/dc/dcmitype/StillImage" />
        <dc:title>SVG Picture created as rc-circuit.svg </dc:title>
      </cc:Work>
    </rdf:RDF>
  </metadata>
  <defs
     id="defs452" />
  <sodipodi:namedview
     pagecolor="#ffffff"
     bordercolor="#666666"
     borderopacity="1"
     objecttolerance="10"
     gridtolerance="10"
     guidetolerance="10"
     inkscape:pageopacity="0"
     inkscape:pageshadow="2"
     inkscape:window-width="1866"
     inkscape:window-height="1023"
     id="namedview450"
     showgrid="false"
     fit-margin-top="0.5"
     fit-margin-right="0.5"
     fit-margin-bottom="0.5"
     fit-margin-left="0.5"
     inkscape:zoom="6.0642714"
     inkscape:cx="-11.449227"
     inkscape:cy="36.281021"
     inkscape:window-x="0"
     inkscape:window-y="26"
     inkscape:window-maximized="1"
     inkscape:current-layer="svg2" />
  <title
     id="title4">SVG Picture created as rc-circuit.svg </title>
  <desc
     id="desc6">Picture generated by wxSVG v0101 </desc>
  <g
     style="fill:#000000;stroke:#000000;stroke-width:1"
     id="g8"
     transform="translate(-4041.4444,-2552.4445)" />
  <g
     style="fill:#000000;fill-opacity:0;stroke:#00a000;stroke-width:6;stroke-linecap:round;stroke-linejoin:round;stroke-opacity:1"
     id="g10"
     transform="translate(-4041.4444,-2552.4445)">
    <path
       d="m 4150,2800 -100,0"
       id="path12"
       inkscape:connector-curvature="0" />
    <path
       d="m 4050,2800 0,600"
       id="path14"
       inkscape:connector-curvature="0" />
    <path
       d="m 4050,3400 2200,0"
       id="path16"
       inkscape:connector-curvature="0" />
    <path
       d="m 5750,2800 -100,0"
       id="path18"
       inkscape:connector-curvature="0" />
    <path
       d="m 6150,2800 100,0"
       id="path20"
       inkscape:connector-curvature="0" />
    <path
       d="m 6250,2800 0,600"
       id="path22"
       inkscape:connector-curvature="0" />
    <path
       d="m 5150,2800 -100,0"
       id="path24"
       inkscape:connector-curvature="0" />
  </g>
  <g
     style="fill:#a00000;fill-opacity:0;stroke:#a00000;stroke-width:6;stroke-linecap:round;stroke-linejoin:round;stroke-opacity:1"
     id="g26"
     transform="translate(-4041.4444,-2552.4445)">
    <path
       d="m 4500,2800 a 71,71 0 0 0 100,0"
       id="path28"
       inkscape:connector-curvature="0" />
    <path
       d="m 4700,2800 a 71,71 0 0 0 -100,0"
       id="path30"
       inkscape:connector-curvature="0" />
  </g>
  <g
     style="fill:#a00000;fill-opacity:0;stroke:#a00000;stroke-width:15;stroke-linecap:round;stroke-linejoin:round;stroke-opacity:1"
     id="g32"
     transform="translate(-4041.4444,-2552.4445)">
    <ellipse
       cx="4600"
       cy="2800"
       rx="141"
       ry="141"
       id="ellipse34"
       sodipodi:cx="4600"
       sodipodi:cy="2800"
       sodipodi:rx="141"
       sodipodi:ry="141"
       d="m 4741,2800 c 0,77.8721 -63.1279,141 -141,141 -77.8721,0 -141,-63.1279 -141,-141 0,-77.8721 63.1279,-141 141,-141 77.8721,0 141,63.1279 141,141 z" />
  </g>
  <g
     style="fill:#a00000;fill-opacity:0;stroke:#a00000;stroke-width:6;stroke-linecap:round;stroke-linejoin:round;stroke-opacity:1"
     id="g36"
     transform="translate(-4041.4444,-2552.4445)">
    <path
       d="m 4450,2800 -300,0"
       id="path38"
       inkscape:connector-curvature="0" />
    <path
       d="m 4750,2800 300,0"
       id="path40"
       inkscape:connector-curvature="0" />
  </g>
  <g
     style="fill:#00a0a0;fill-opacity:0;stroke:#00a0a0;stroke-width:6;stroke-linecap:round;stroke-linejoin:round;stroke-opacity:1"
     id="g42"
     transform="translate(-4041.4444,-2552.4445)">
    <path
       d="m 4352,2811 20,60"
       id="path44"
       inkscape:connector-curvature="0" />
    <path
       d="m 4372,2871 20,-60"
       id="path46"
       inkscape:connector-curvature="0" />
    <g
       style="stroke-linecap:round"
       id="g48">
      <path
         d="m 4392,2811 0,0"
         id="path50"
         inkscape:connector-curvature="0" />
    </g>
    <path
       d="m 4443,2871 -35,0"
       id="path52"
       inkscape:connector-curvature="0" />
    <g
       style="stroke-linecap:round"
       id="g54">
      <path
         d="m 4408,2871 0,0"
         id="path56"
         inkscape:connector-curvature="0" />
    </g>
    <path
       d="m 4426,2871 0,-60"
       id="path58"
       inkscape:connector-curvature="0" />
    <path
       d="m 4426,2811 -6,9"
       id="path60"
       inkscape:connector-curvature="0" />
    <path
       d="m 4420,2820 -6,6"
       id="path62"
       inkscape:connector-curvature="0" />
    <path
       d="m 4414,2826 -6,2"
       id="path64"
       inkscape:connector-curvature="0" />
    <g
       style="stroke-linecap:round"
       id="g66">
      <path
         d="m 4408,2828 0,0"
         id="path68"
         inkscape:connector-curvature="0" />
    </g>
    <path
       d="m 4386,2604 29,0"
       id="path70"
       inkscape:connector-curvature="0" />
    <g
       style="stroke-linecap:round"
       id="g72">
      <path
         d="m 4415,2604 0,0"
         id="path74"
         inkscape:connector-curvature="0" />
    </g>
    <path
       d="m 4381,2621 20,-60"
       id="path76"
       inkscape:connector-curvature="0" />
    <path
       d="m 4401,2561 20,60"
       id="path78"
       inkscape:connector-curvature="0" />
    <g
       style="stroke-linecap:round"
       id="g80">
      <path
         d="m 4421,2621 0,0"
         id="path82"
         inkscape:connector-curvature="0" />
    </g>
    <path
       d="m 4475,2616 -3,2"
       id="path84"
       inkscape:connector-curvature="0" />
    <path
       d="m 4472,2618 -9,3"
       id="path86"
       inkscape:connector-curvature="0" />
    <path
       d="m 4463,2621 -6,0"
       id="path88"
       inkscape:connector-curvature="0" />
    <path
       d="m 4457,2621 -8,-3"
       id="path90"
       inkscape:connector-curvature="0" />
    <path
       d="m 4449,2618 -6,-5"
       id="path92"
       inkscape:connector-curvature="0" />
    <path
       d="m 4443,2613 -3,-6"
       id="path94"
       inkscape:connector-curvature="0" />
    <path
       d="m 4440,2607 -3,-11"
       id="path96"
       inkscape:connector-curvature="0" />
    <path
       d="m 4437,2596 0,-9"
       id="path98"
       inkscape:connector-curvature="0" />
    <path
       d="m 4437,2587 3,-11"
       id="path100"
       inkscape:connector-curvature="0" />
    <path
       d="m 4440,2576 3,-6"
       id="path102"
       inkscape:connector-curvature="0" />
    <path
       d="m 4443,2570 6,-6"
       id="path104"
       inkscape:connector-curvature="0" />
    <path
       d="m 4449,2564 8,-3"
       id="path106"
       inkscape:connector-curvature="0" />
    <path
       d="m 4457,2561 6,0"
       id="path108"
       inkscape:connector-curvature="0" />
    <path
       d="m 4463,2561 9,3"
       id="path110"
       inkscape:connector-curvature="0" />
    <path
       d="m 4472,2564 3,3"
       id="path112"
       inkscape:connector-curvature="0" />
    <g
       style="stroke-linecap:round"
       id="g114">
      <path
         d="m 4475,2567 0,0"
         id="path116"
         inkscape:connector-curvature="0" />
    </g>
    <path
       d="m 4497,2618 9,3"
       id="path118"
       inkscape:connector-curvature="0" />
    <path
       d="m 4506,2621 14,0"
       id="path120"
       inkscape:connector-curvature="0" />
    <path
       d="m 4520,2621 6,-3"
       id="path122"
       inkscape:connector-curvature="0" />
    <path
       d="m 4526,2618 3,-2"
       id="path124"
       inkscape:connector-curvature="0" />
    <path
       d="m 4529,2616 3,-6"
       id="path126"
       inkscape:connector-curvature="0" />
    <path
       d="m 4532,2610 0,-6"
       id="path128"
       inkscape:connector-curvature="0" />
    <path
       d="m 4532,2604 -3,-6"
       id="path130"
       inkscape:connector-curvature="0" />
    <path
       d="m 4529,2598 -3,-2"
       id="path132"
       inkscape:connector-curvature="0" />
    <path
       d="m 4526,2596 -6,-3"
       id="path134"
       inkscape:connector-curvature="0" />
    <path
       d="m 4520,2593 -11,-3"
       id="path136"
       inkscape:connector-curvature="0" />
    <path
       d="m 4509,2590 -6,-3"
       id="path138"
       inkscape:connector-curvature="0" />
    <path
       d="m 4503,2587 -3,-3"
       id="path140"
       inkscape:connector-curvature="0" />
    <path
       d="m 4500,2584 -3,-6"
       id="path142"
       inkscape:connector-curvature="0" />
    <path
       d="m 4497,2578 0,-5"
       id="path144"
       inkscape:connector-curvature="0" />
    <path
       d="m 4497,2573 3,-6"
       id="path146"
       inkscape:connector-curvature="0" />
    <path
       d="m 4500,2567 3,-3"
       id="path148"
       inkscape:connector-curvature="0" />
    <path
       d="m 4503,2564 6,-3"
       id="path150"
       inkscape:connector-curvature="0" />
    <path
       d="m 4509,2561 14,0"
       id="path152"
       inkscape:connector-curvature="0" />
    <path
       d="m 4523,2561 9,3"
       id="path154"
       inkscape:connector-curvature="0" />
    <g
       style="stroke-linecap:round"
       id="g156">
      <path
         d="m 4532,2564 0,0"
         id="path158"
         inkscape:connector-curvature="0" />
    </g>
    <path
       d="m 4557,2561 0,49"
       id="path160"
       inkscape:connector-curvature="0" />
    <path
       d="m 4557,2610 3,6"
       id="path162"
       inkscape:connector-curvature="0" />
    <path
       d="m 4560,2616 3,2"
       id="path164"
       inkscape:connector-curvature="0" />
    <path
       d="m 4563,2618 6,3"
       id="path166"
       inkscape:connector-curvature="0" />
    <path
       d="m 4569,2621 11,0"
       id="path168"
       inkscape:connector-curvature="0" />
    <path
       d="m 4580,2621 6,-3"
       id="path170"
       inkscape:connector-curvature="0" />
    <path
       d="m 4586,2618 3,-2"
       id="path172"
       inkscape:connector-curvature="0" />
    <path
       d="m 4589,2616 3,-6"
       id="path174"
       inkscape:connector-curvature="0" />
    <path
       d="m 4592,2610 0,-49"
       id="path176"
       inkscape:connector-curvature="0" />
    <g
       style="stroke-linecap:round"
       id="g178">
      <path
         d="m 4592,2561 0,0"
         id="path180"
         inkscape:connector-curvature="0" />
    </g>
    <path
       d="m 4620,2621 0,-60"
       id="path182"
       inkscape:connector-curvature="0" />
    <path
       d="m 4620,2561 23,0"
       id="path184"
       inkscape:connector-curvature="0" />
    <path
       d="m 4643,2561 6,3"
       id="path186"
       inkscape:connector-curvature="0" />
    <path
       d="m 4649,2564 3,3"
       id="path188"
       inkscape:connector-curvature="0" />
    <path
       d="m 4652,2567 3,6"
       id="path190"
       inkscape:connector-curvature="0" />
    <path
       d="m 4655,2573 0,8"
       id="path192"
       inkscape:connector-curvature="0" />
    <path
       d="m 4655,2581 -3,6"
       id="path194"
       inkscape:connector-curvature="0" />
    <path
       d="m 4652,2587 -3,3"
       id="path196"
       inkscape:connector-curvature="0" />
    <path
       d="m 4649,2590 -6,3"
       id="path198"
       inkscape:connector-curvature="0" />
    <path
       d="m 4643,2593 -23,0"
       id="path200"
       inkscape:connector-curvature="0" />
    <g
       style="stroke-linecap:round"
       id="g202">
      <path
         d="m 4620,2593 0,0"
         id="path204"
         inkscape:connector-curvature="0" />
    </g>
    <path
       d="m 4680,2621 0,-60"
       id="path206"
       inkscape:connector-curvature="0" />
    <path
       d="m 4680,2561 23,0"
       id="path208"
       inkscape:connector-curvature="0" />
    <path
       d="m 4703,2561 6,3"
       id="path210"
       inkscape:connector-curvature="0" />
    <path
       d="m 4709,2564 3,3"
       id="path212"
       inkscape:connector-curvature="0" />
    <path
       d="m 4712,2567 3,6"
       id="path214"
       inkscape:connector-curvature="0" />
    <path
       d="m 4715,2573 0,8"
       id="path216"
       inkscape:connector-curvature="0" />
    <path
       d="m 4715,2581 -3,6"
       id="path218"
       inkscape:connector-curvature="0" />
    <path
       d="m 4712,2587 -3,3"
       id="path220"
       inkscape:connector-curvature="0" />
    <path
       d="m 4709,2590 -6,3"
       id="path222"
       inkscape:connector-curvature="0" />
    <path
       d="m 4703,2593 -23,0"
       id="path224"
       inkscape:connector-curvature="0" />
    <g
       style="stroke-linecap:round"
       id="g226">
      <path
         d="m 4680,2593 0,0"
         id="path228"
         inkscape:connector-curvature="0" />
    </g>
    <path
       d="m 4769,2621 -29,0"
       id="path230"
       inkscape:connector-curvature="0" />
    <path
       d="m 4740,2621 0,-60"
       id="path232"
       inkscape:connector-curvature="0" />
    <g
       style="stroke-linecap:round"
       id="g234">
      <path
         d="m 4740,2561 0,0"
         id="path236"
         inkscape:connector-curvature="0" />
    </g>
    <path
       d="m 4801,2593 0,28"
       id="path238"
       inkscape:connector-curvature="0" />
    <g
       style="stroke-linecap:round"
       id="g240">
      <path
         d="m 4801,2621 0,0"
         id="path242"
         inkscape:connector-curvature="0" />
    </g>
    <path
       d="m 4781,2561 20,32"
       id="path244"
       inkscape:connector-curvature="0" />
    <path
       d="m 4801,2593 20,-32"
       id="path246"
       inkscape:connector-curvature="0" />
    <g
       style="stroke-linecap:round"
       id="g248">
      <path
         d="m 4821,2561 0,0"
         id="path250"
         inkscape:connector-curvature="0" />
    </g>
  </g>
  <g
     style="fill:#000000;fill-opacity:0;stroke:#a00000;stroke-width:12;stroke-linecap:round;stroke-linejoin:round;stroke-opacity:1"
     id="g252"
     transform="translate(-4041.4444,-2552.4445)">
    <polygon
       style="fill-rule:evenodd"
       points="5250,2760 5550,2760 5550,2760 5550,2840 5250,2840 "
       id="polygon254" />
  </g>
  <g
     style="fill:#000000;fill-opacity:0;stroke:#a00000;stroke-width:6;stroke-linecap:round;stroke-linejoin:round;stroke-opacity:1"
     id="g256"
     transform="translate(-4041.4444,-2552.4445)">
    <path
       d="m 5550,2800 100,0"
       id="path258"
       inkscape:connector-curvature="0" />
    <path
       d="m 5250,2800 -100,0"
       id="path260"
       inkscape:connector-curvature="0" />
  </g>
  <g
     style="fill:#00a0a0;fill-opacity:0;stroke:#00a0a0;stroke-width:6;stroke-linecap:round;stroke-linejoin:round;stroke-opacity:1"
     id="g262"
     transform="translate(-4041.4444,-2552.4445)">
    <path
       d="m 5391,2897 -16,-24"
       id="path264"
       inkscape:connector-curvature="0" />
    <g
       style="stroke-linecap:round"
       id="g266">
      <path
         d="m 5375,2873 0,0"
         id="path268"
         inkscape:connector-curvature="0" />
    </g>
    <path
       d="m 5363,2897 0,-50"
       id="path270"
       inkscape:connector-curvature="0" />
    <path
       d="m 5363,2847 19,0"
       id="path272"
       inkscape:connector-curvature="0" />
    <path
       d="m 5382,2847 5,3"
       id="path274"
       inkscape:connector-curvature="0" />
    <path
       d="m 5387,2850 2,2"
       id="path276"
       inkscape:connector-curvature="0" />
    <path
       d="m 5389,2852 2,5"
       id="path278"
       inkscape:connector-curvature="0" />
    <path
       d="m 5391,2857 0,7"
       id="path280"
       inkscape:connector-curvature="0" />
    <path
       d="m 5391,2864 -2,5"
       id="path282"
       inkscape:connector-curvature="0" />
    <path
       d="m 5389,2869 -2,2"
       id="path284"
       inkscape:connector-curvature="0" />
    <path
       d="m 5387,2871 -5,2"
       id="path286"
       inkscape:connector-curvature="0" />
    <path
       d="m 5382,2873 -19,0"
       id="path288"
       inkscape:connector-curvature="0" />
    <g
       style="stroke-linecap:round"
       id="g290">
      <path
         d="m 5363,2873 0,0"
         id="path292"
         inkscape:connector-curvature="0" />
    </g>
    <path
       d="m 5439,2897 -28,0"
       id="path294"
       inkscape:connector-curvature="0" />
    <g
       style="stroke-linecap:round"
       id="g296">
      <path
         d="m 5411,2897 0,0"
         id="path298"
         inkscape:connector-curvature="0" />
    </g>
    <path
       d="m 5425,2897 0,-50"
       id="path300"
       inkscape:connector-curvature="0" />
    <path
       d="m 5425,2847 -5,7"
       id="path302"
       inkscape:connector-curvature="0" />
    <path
       d="m 5420,2854 -5,5"
       id="path304"
       inkscape:connector-curvature="0" />
    <path
       d="m 5415,2859 -4,3"
       id="path306"
       inkscape:connector-curvature="0" />
    <g
       style="stroke-linecap:round"
       id="g308">
      <path
         d="m 5411,2862 0,0"
         id="path310"
         inkscape:connector-curvature="0" />
    </g>
    <path
       d="m 5415,2817 -16,-24"
       id="path312"
       inkscape:connector-curvature="0" />
    <g
       style="stroke-linecap:round"
       id="g314">
      <path
         d="m 5399,2793 0,0"
         id="path316"
         inkscape:connector-curvature="0" />
    </g>
    <path
       d="m 5387,2817 0,-50"
       id="path318"
       inkscape:connector-curvature="0" />
    <path
       d="m 5387,2767 19,0"
       id="path320"
       inkscape:connector-curvature="0" />
    <path
       d="m 5406,2767 5,3"
       id="path322"
       inkscape:connector-curvature="0" />
    <path
       d="m 5411,2770 2,2"
       id="path324"
       inkscape:connector-curvature="0" />
    <path
       d="m 5413,2772 2,5"
       id="path326"
       inkscape:connector-curvature="0" />
    <path
       d="m 5415,2777 0,7"
       id="path328"
       inkscape:connector-curvature="0" />
    <path
       d="m 5415,2784 -2,5"
       id="path330"
       inkscape:connector-curvature="0" />
    <path
       d="m 5413,2789 -2,2"
       id="path332"
       inkscape:connector-curvature="0" />
    <path
       d="m 5411,2791 -5,2"
       id="path334"
       inkscape:connector-curvature="0" />
    <path
       d="m 5406,2793 -19,0"
       id="path336"
       inkscape:connector-curvature="0" />
    <g
       style="stroke-linecap:round"
       id="g338">
      <path
         d="m 5387,2793 0,0"
         id="path340"
         inkscape:connector-curvature="0" />
    </g>
  </g>
  <g
     style="fill:#a00000;fill-opacity:0;stroke:#a00000;stroke-width:20;stroke-linecap:round;stroke-linejoin:round;stroke-opacity:1"
     id="g342"
     transform="translate(-4041.4444,-2552.4445)">
    <path
       d="m 5920,2700 0,200"
       id="path344"
       inkscape:connector-curvature="0" />
    <g
       style="stroke-linecap:round"
       id="g346">
      <path
         d="m 5920,2900 0,0"
         id="path348"
         inkscape:connector-curvature="0" />
    </g>
    <path
       d="m 5980,2700 0,200"
       id="path350"
       inkscape:connector-curvature="0" />
    <g
       style="stroke-linecap:round"
       id="g352">
      <path
         d="m 5980,2900 0,0"
         id="path354"
         inkscape:connector-curvature="0" />
    </g>
  </g>
  <g
     style="fill:#a00000;fill-opacity:0;stroke:#a00000;stroke-width:6;stroke-linecap:round;stroke-linejoin:round;stroke-opacity:1"
     id="g356"
     transform="translate(-4041.4444,-2552.4445)">
    <path
       d="m 5980,2800 170,0"
       id="path358"
       inkscape:connector-curvature="0" />
    <path
       d="m 5920,2800 -170,0"
       id="path360"
       inkscape:connector-curvature="0" />
  </g>
  <g
     style="fill:#00a0a0;fill-opacity:0;stroke:#00a0a0;stroke-width:6;stroke-linecap:round;stroke-linejoin:round;stroke-opacity:1"
     id="g362"
     transform="translate(-4041.4444,-2552.4445)">
    <path
       d="m 6090,2862 -2,3"
       id="path364"
       inkscape:connector-curvature="0" />
    <path
       d="m 6088,2865 -7,2"
       id="path366"
       inkscape:connector-curvature="0" />
    <path
       d="m 6081,2867 -5,0"
       id="path368"
       inkscape:connector-curvature="0" />
    <path
       d="m 6076,2867 -7,-2"
       id="path370"
       inkscape:connector-curvature="0" />
    <path
       d="m 6069,2865 -5,-5"
       id="path372"
       inkscape:connector-curvature="0" />
    <path
       d="m 6064,2860 -2,-5"
       id="path374"
       inkscape:connector-curvature="0" />
    <path
       d="m 6062,2855 -2,-9"
       id="path376"
       inkscape:connector-curvature="0" />
    <path
       d="m 6060,2846 0,-7"
       id="path378"
       inkscape:connector-curvature="0" />
    <path
       d="m 6060,2839 2,-10"
       id="path380"
       inkscape:connector-curvature="0" />
    <path
       d="m 6062,2829 2,-5"
       id="path382"
       inkscape:connector-curvature="0" />
    <path
       d="m 6064,2824 5,-4"
       id="path384"
       inkscape:connector-curvature="0" />
    <path
       d="m 6069,2820 7,-3"
       id="path386"
       inkscape:connector-curvature="0" />
    <path
       d="m 6076,2817 5,0"
       id="path388"
       inkscape:connector-curvature="0" />
    <path
       d="m 6081,2817 7,3"
       id="path390"
       inkscape:connector-curvature="0" />
    <path
       d="m 6088,2820 2,2"
       id="path392"
       inkscape:connector-curvature="0" />
    <g
       style="stroke-linecap:round"
       id="g394">
      <path
         d="m 6090,2822 0,0"
         id="path396"
         inkscape:connector-curvature="0" />
    </g>
    <path
       d="m 6138,2867 -28,0"
       id="path398"
       inkscape:connector-curvature="0" />
    <g
       style="stroke-linecap:round"
       id="g400">
      <path
         d="m 6110,2867 0,0"
         id="path402"
         inkscape:connector-curvature="0" />
    </g>
    <path
       d="m 6124,2867 0,-50"
       id="path404"
       inkscape:connector-curvature="0" />
    <path
       d="m 6124,2817 -5,7"
       id="path406"
       inkscape:connector-curvature="0" />
    <path
       d="m 6119,2824 -5,5"
       id="path408"
       inkscape:connector-curvature="0" />
    <path
       d="m 6114,2829 -4,3"
       id="path410"
       inkscape:connector-curvature="0" />
    <g
       style="stroke-linecap:round"
       id="g412">
      <path
         d="m 6110,2832 0,0"
         id="path414"
         inkscape:connector-curvature="0" />
    </g>
    <path
       d="m 5890,2862 -2,3"
       id="path416"
       inkscape:connector-curvature="0" />
    <path
       d="m 5888,2865 -7,2"
       id="path418"
       inkscape:connector-curvature="0" />
    <path
       d="m 5881,2867 -5,0"
       id="path420"
       inkscape:connector-curvature="0" />
    <path
       d="m 5876,2867 -7,-2"
       id="path422"
       inkscape:connector-curvature="0" />
    <path
       d="m 5869,2865 -5,-5"
       id="path424"
       inkscape:connector-curvature="0" />
    <path
       d="m 5864,2860 -2,-5"
       id="path426"
       inkscape:connector-curvature="0" />
    <path
       d="m 5862,2855 -2,-9"
       id="path428"
       inkscape:connector-curvature="0" />
    <path
       d="m 5860,2846 0,-7"
       id="path430"
       inkscape:connector-curvature="0" />
    <path
       d="m 5860,2839 2,-10"
       id="path432"
       inkscape:connector-curvature="0" />
    <path
       d="m 5862,2829 2,-5"
       id="path434"
       inkscape:connector-curvature="0" />
    <path
       d="m 5864,2824 5,-4"
       id="path436"
       inkscape:connector-curvature="0" />
    <path
       d="m 5869,2820 7,-3"
       id="path438"
       inkscape:connector-curvature="0" />
    <path
       d="m 5876,2817 5,0"
       id="path440"
       inkscape:connector-curvature="0" />
    <path
       d="m 5881,2817 7,3"
       id="path442"
       inkscape:connector-curvature="0" />
    <path
       d="m 5888,2820 2,2"
       id="path444"
       inkscape:connector-curvature="0" />
    <g
       style="stroke-linecap:round"
       id="g446">
      <path
         d="m 5890,2822 0,0"
         id="path448"
         inkscape:connector-curvature="0" />
    </g>
  </g>
</svg>
