<?xml version="1.0" encoding="UTF-8" standalone="no"?>
<svg
   xmlns:dc="http://purl.org/dc/elements/1.1/"
   xmlns:cc="http://creativecommons.org/ns#"
   xmlns:rdf="http://www.w3.org/1999/02/22-rdf-syntax-ns#"
   xmlns:svg="http://www.w3.org/2000/svg"
   xmlns="http://www.w3.org/2000/svg"
   xmlns:sodipodi="http://sodipodi.sourceforge.net/DTD/sodipodi-0.dtd"
   xmlns:inkscape="http://www.inkscape.org/namespaces/inkscape"
   version="1.1"
   width="217.53999"
   height="77.050003"
   viewBox="0 0 2417.111 856.11111"
   id="svg2"
   inkscape:version="0.48.1 r9760"
   sodipodi:docname="rl-circuit.svg">
  <metadata
     id="metadata558">
    <rdf:RDF>
      <cc:Work
         rdf:about="">
        <dc:format>image/svg+xml</dc:format>
        <dc:type
           rdf:resource="http://purl.org/dc/dcmitype/StillImage" />
      </cc:Work>
    </rdf:RDF>
  </metadata>
  <defs
     id="defs556" />
  <sodipodi:namedview
     pagecolor="#ffffff"
     bordercolor="#666666"
     borderopacity="1"
     objecttolerance="10"
     gridtolerance="10"
     guidetolerance="10"
     inkscape:pageopacity="0"
     inkscape:pageshadow="2"
     inkscape:window-width="1866"
     inkscape:window-height="1023"
     id="namedview554"
     showgrid="false"
     fit-margin-top="0.5"
     fit-margin-right="0.5"
     fit-margin-bottom="0.5"
     fit-margin-left="0.5"
     inkscape:zoom="1.5160678"
     inkscape:cx="92.894746"
     inkscape:cy="26.772242"
     inkscape:window-x="0"
     inkscape:window-y="26"
     inkscape:window-maximized="1"
     inkscape:current-layer="svg2" />
  <title
     id="title4">SVG Picture created as rl-circuit.svg </title>
  <desc
     id="desc6">Picture generated by wxSVG v0101 </desc>
  <g
     style="fill:#000000;stroke:#000000;stroke-width:1"
     id="g8"
     transform="translate(-4041.4444,-2552.4446)" />
  <g
     style="fill:#000000;fill-opacity:0;stroke:#00a000;stroke-width:6;stroke-linecap:round;stroke-linejoin:round;stroke-opacity:1"
     id="g10"
     transform="translate(-4041.4444,-2552.4446)">
    <path
       d="m 6350,2800 100,0"
       id="path12"
       inkscape:connector-curvature="0" />
    <path
       d="m 6450,2800 0,600"
       id="path14"
       inkscape:connector-curvature="0" />
    <path
       d="m 4150,2800 -100,0"
       id="path16"
       inkscape:connector-curvature="0" />
    <path
       d="m 4050,2800 0,600"
       id="path18"
       inkscape:connector-curvature="0" />
    <path
       d="m 5750,2800 -100,0"
       id="path20"
       inkscape:connector-curvature="0" />
    <path
       d="m 5150,2800 -100,0"
       id="path22"
       inkscape:connector-curvature="0" />
    <path
       d="m 4050,3400 2400,0"
       id="path24"
       inkscape:connector-curvature="0" />
  </g>
  <g
     style="fill:#a00000;fill-opacity:0;stroke:#a00000;stroke-width:6;stroke-linecap:round;stroke-linejoin:round;stroke-opacity:1"
     id="g26"
     transform="translate(-4041.4444,-2552.4446)">
    <path
       d="m 6249,2799 a 49.5,50.510204 0 0 0 -99,0"
       id="path28"
       inkscape:connector-curvature="0" />
    <path
       d="m 6149,2799 a 50.5,51.51 0 0 0 -101,0"
       id="path30"
       inkscape:connector-curvature="0" />
    <path
       d="m 6049,2799 a 50.5,51.51 0 0 0 -101,0"
       id="path32"
       inkscape:connector-curvature="0" />
    <path
       d="m 5949,2799 a 47.5,48.510638 0 0 0 -95,0"
       id="path34"
       inkscape:connector-curvature="0" />
    <path
       d="m 5850,2800 -100,0"
       id="path36"
       inkscape:connector-curvature="0" />
    <path
       d="m 6250,2800 100,0"
       id="path38"
       inkscape:connector-curvature="0" />
  </g>
  <g
     style="fill:#00a0a0;fill-opacity:0;stroke:#00a0a0;stroke-width:6;stroke-linecap:round;stroke-linejoin:round;stroke-opacity:1"
     id="g40"
     transform="translate(-4041.4444,-2552.4446)">
    <path
       d="m 6044,2869 -19,0"
       id="path42"
       inkscape:connector-curvature="0" />
    <path
       d="m 6025,2869 0,-40"
       id="path44"
       inkscape:connector-curvature="0" />
    <g
       style="stroke-linecap:round"
       id="g46">
      <path
         d="m 6025,2829 0,0"
         id="path48"
         inkscape:connector-curvature="0" />
    </g>
    <path
       d="m 6077,2869 -22,0"
       id="path50"
       inkscape:connector-curvature="0" />
    <g
       style="stroke-linecap:round"
       id="g52">
      <path
         d="m 6055,2869 0,0"
         id="path54"
         inkscape:connector-curvature="0" />
    </g>
    <path
       d="m 6066,2869 0,-40"
       id="path56"
       inkscape:connector-curvature="0" />
    <path
       d="m 6066,2829 -4,6"
       id="path58"
       inkscape:connector-curvature="0" />
    <path
       d="m 6062,2835 -4,4"
       id="path60"
       inkscape:connector-curvature="0" />
    <path
       d="m 6058,2839 -3,2"
       id="path62"
       inkscape:connector-curvature="0" />
    <g
       style="stroke-linecap:round"
       id="g64">
      <path
         d="m 6055,2841 0,0"
         id="path66"
         inkscape:connector-curvature="0" />
    </g>
    <path
       d="m 5912,2719 0,-40"
       id="path68"
       inkscape:connector-curvature="0" />
    <g
       style="stroke-linecap:round"
       id="g70">
      <path
         d="m 5912,2679 0,0"
         id="path72"
         inkscape:connector-curvature="0" />
    </g>
    <path
       d="m 5931,2719 0,-40"
       id="path74"
       inkscape:connector-curvature="0" />
    <path
       d="m 5931,2679 22,40"
       id="path76"
       inkscape:connector-curvature="0" />
    <path
       d="m 5953,2719 0,-40"
       id="path78"
       inkscape:connector-curvature="0" />
    <g
       style="stroke-linecap:round"
       id="g80">
      <path
         d="m 5953,2679 0,0"
         id="path82"
         inkscape:connector-curvature="0" />
    </g>
    <path
       d="m 5973,2719 0,-40"
       id="path84"
       inkscape:connector-curvature="0" />
    <path
       d="m 5973,2679 9,0"
       id="path86"
       inkscape:connector-curvature="0" />
    <path
       d="m 5982,2679 6,2"
       id="path88"
       inkscape:connector-curvature="0" />
    <path
       d="m 5988,2681 4,4"
       id="path90"
       inkscape:connector-curvature="0" />
    <path
       d="m 5992,2685 1,4"
       id="path92"
       inkscape:connector-curvature="0" />
    <path
       d="m 5993,2689 2,7"
       id="path94"
       inkscape:connector-curvature="0" />
    <path
       d="m 5995,2696 0,6"
       id="path96"
       inkscape:connector-curvature="0" />
    <path
       d="m 5995,2702 -2,8"
       id="path98"
       inkscape:connector-curvature="0" />
    <path
       d="m 5993,2710 -1,3"
       id="path100"
       inkscape:connector-curvature="0" />
    <path
       d="m 5992,2713 -4,4"
       id="path102"
       inkscape:connector-curvature="0" />
    <path
       d="m 5988,2717 -6,2"
       id="path104"
       inkscape:connector-curvature="0" />
    <path
       d="m 5982,2719 -9,0"
       id="path106"
       inkscape:connector-curvature="0" />
    <path
       d="m 6013,2679 0,33"
       id="path108"
       inkscape:connector-curvature="0" />
    <path
       d="m 6013,2712 1,3"
       id="path110"
       inkscape:connector-curvature="0" />
    <path
       d="m 6014,2715 2,2"
       id="path112"
       inkscape:connector-curvature="0" />
    <path
       d="m 6016,2717 4,2"
       id="path114"
       inkscape:connector-curvature="0" />
    <path
       d="m 6020,2719 8,0"
       id="path116"
       inkscape:connector-curvature="0" />
    <path
       d="m 6028,2719 4,-2"
       id="path118"
       inkscape:connector-curvature="0" />
    <path
       d="m 6032,2717 1,-2"
       id="path120"
       inkscape:connector-curvature="0" />
    <path
       d="m 6033,2715 2,-3"
       id="path122"
       inkscape:connector-curvature="0" />
    <path
       d="m 6035,2712 0,-33"
       id="path124"
       inkscape:connector-curvature="0" />
    <g
       style="stroke-linecap:round"
       id="g126">
      <path
         d="m 6035,2679 0,0"
         id="path128"
         inkscape:connector-curvature="0" />
    </g>
    <path
       d="m 6077,2715 -2,2"
       id="path130"
       inkscape:connector-curvature="0" />
    <path
       d="m 6075,2717 -5,2"
       id="path132"
       inkscape:connector-curvature="0" />
    <path
       d="m 6070,2719 -4,0"
       id="path134"
       inkscape:connector-curvature="0" />
    <path
       d="m 6066,2719 -6,-2"
       id="path136"
       inkscape:connector-curvature="0" />
    <path
       d="m 6060,2717 -4,-4"
       id="path138"
       inkscape:connector-curvature="0" />
    <path
       d="m 6056,2713 -1,-3"
       id="path140"
       inkscape:connector-curvature="0" />
    <path
       d="m 6055,2710 -2,-8"
       id="path142"
       inkscape:connector-curvature="0" />
    <path
       d="m 6053,2702 0,-6"
       id="path144"
       inkscape:connector-curvature="0" />
    <path
       d="m 6053,2696 2,-7"
       id="path146"
       inkscape:connector-curvature="0" />
    <path
       d="m 6055,2689 1,-4"
       id="path148"
       inkscape:connector-curvature="0" />
    <path
       d="m 6056,2685 4,-4"
       id="path150"
       inkscape:connector-curvature="0" />
    <path
       d="m 6060,2681 6,-2"
       id="path152"
       inkscape:connector-curvature="0" />
    <path
       d="m 6066,2679 4,0"
       id="path154"
       inkscape:connector-curvature="0" />
    <path
       d="m 6070,2679 5,2"
       id="path156"
       inkscape:connector-curvature="0" />
    <path
       d="m 6075,2681 2,2"
       id="path158"
       inkscape:connector-curvature="0" />
    <g
       style="stroke-linecap:round"
       id="g160">
      <path
         d="m 6077,2683 0,0"
         id="path162"
         inkscape:connector-curvature="0" />
    </g>
    <path
       d="m 6089,2679 23,0"
       id="path164"
       inkscape:connector-curvature="0" />
    <g
       style="stroke-linecap:round"
       id="g166">
      <path
         d="m 6112,2679 0,0"
         id="path168"
         inkscape:connector-curvature="0" />
    </g>
    <path
       d="m 6100,2719 0,-40"
       id="path170"
       inkscape:connector-curvature="0" />
    <g
       style="stroke-linecap:round"
       id="g172">
      <path
         d="m 6100,2679 0,0"
         id="path174"
         inkscape:connector-curvature="0" />
    </g>
    <path
       d="m 6132,2679 8,0"
       id="path176"
       inkscape:connector-curvature="0" />
    <path
       d="m 6140,2679 4,2"
       id="path178"
       inkscape:connector-curvature="0" />
    <path
       d="m 6144,2681 3,4"
       id="path180"
       inkscape:connector-curvature="0" />
    <path
       d="m 6147,2685 2,8"
       id="path182"
       inkscape:connector-curvature="0" />
    <path
       d="m 6149,2693 0,13"
       id="path184"
       inkscape:connector-curvature="0" />
    <path
       d="m 6149,2706 -2,7"
       id="path186"
       inkscape:connector-curvature="0" />
    <path
       d="m 6147,2713 -3,4"
       id="path188"
       inkscape:connector-curvature="0" />
    <path
       d="m 6144,2717 -4,2"
       id="path190"
       inkscape:connector-curvature="0" />
    <path
       d="m 6140,2719 -8,0"
       id="path192"
       inkscape:connector-curvature="0" />
    <path
       d="m 6132,2719 -4,-2"
       id="path194"
       inkscape:connector-curvature="0" />
    <path
       d="m 6128,2717 -3,-4"
       id="path196"
       inkscape:connector-curvature="0" />
    <path
       d="m 6125,2713 -2,-7"
       id="path198"
       inkscape:connector-curvature="0" />
    <path
       d="m 6123,2706 0,-13"
       id="path200"
       inkscape:connector-curvature="0" />
    <path
       d="m 6123,2693 2,-8"
       id="path202"
       inkscape:connector-curvature="0" />
    <path
       d="m 6125,2685 3,-4"
       id="path204"
       inkscape:connector-curvature="0" />
    <path
       d="m 6128,2681 4,-2"
       id="path206"
       inkscape:connector-curvature="0" />
    <path
       d="m 6189,2719 -13,-19"
       id="path208"
       inkscape:connector-curvature="0" />
    <g
       style="stroke-linecap:round"
       id="g210">
      <path
         d="m 6176,2700 0,0"
         id="path212"
         inkscape:connector-curvature="0" />
    </g>
    <path
       d="m 6167,2719 0,-40"
       id="path214"
       inkscape:connector-curvature="0" />
    <path
       d="m 6167,2679 15,0"
       id="path216"
       inkscape:connector-curvature="0" />
    <path
       d="m 6182,2679 4,2"
       id="path218"
       inkscape:connector-curvature="0" />
    <path
       d="m 6186,2681 1,2"
       id="path220"
       inkscape:connector-curvature="0" />
    <path
       d="m 6187,2683 2,4"
       id="path222"
       inkscape:connector-curvature="0" />
    <path
       d="m 6189,2687 0,6"
       id="path224"
       inkscape:connector-curvature="0" />
    <path
       d="m 6189,2693 -2,3"
       id="path226"
       inkscape:connector-curvature="0" />
    <path
       d="m 6187,2696 -1,2"
       id="path228"
       inkscape:connector-curvature="0" />
    <path
       d="m 6186,2698 -4,2"
       id="path230"
       inkscape:connector-curvature="0" />
    <path
       d="m 6182,2700 -15,0"
       id="path232"
       inkscape:connector-curvature="0" />
    <g
       style="stroke-linecap:round"
       id="g234">
      <path
         d="m 6167,2700 0,0"
         id="path236"
         inkscape:connector-curvature="0" />
    </g>
  </g>
  <g
     style="fill:#a00000;fill-opacity:0;stroke:#a00000;stroke-width:6;stroke-linecap:round;stroke-linejoin:round;stroke-opacity:1"
     id="g238"
     transform="translate(-4041.4444,-2552.4446)">
    <path
       d="m 4500,2800 a 71,71 0 0 0 100,0"
       id="path240"
       inkscape:connector-curvature="0" />
    <path
       d="m 4700,2800 a 71,71 0 0 0 -100,0"
       id="path242"
       inkscape:connector-curvature="0" />
  </g>
  <g
     style="fill:#a00000;fill-opacity:0;stroke:#a00000;stroke-width:15;stroke-linecap:round;stroke-linejoin:round;stroke-opacity:1"
     id="g244"
     transform="translate(-4041.4444,-2552.4446)">
    <ellipse
       cx="4600"
       cy="2800"
       rx="141"
       ry="141"
       id="ellipse246"
       sodipodi:cx="4600"
       sodipodi:cy="2800"
       sodipodi:rx="141"
       sodipodi:ry="141"
       d="m 4741,2800 c 0,77.8721 -63.1279,141 -141,141 -77.8721,0 -141,-63.1279 -141,-141 0,-77.8721 63.1279,-141 141,-141 77.8721,0 141,63.1279 141,141 z" />
  </g>
  <g
     style="fill:#a00000;fill-opacity:0;stroke:#a00000;stroke-width:6;stroke-linecap:round;stroke-linejoin:round;stroke-opacity:1"
     id="g248"
     transform="translate(-4041.4444,-2552.4446)">
    <path
       d="m 4450,2800 -300,0"
       id="path250"
       inkscape:connector-curvature="0" />
    <path
       d="m 4750,2800 300,0"
       id="path252"
       inkscape:connector-curvature="0" />
  </g>
  <g
     style="fill:#00a0a0;fill-opacity:0;stroke:#00a0a0;stroke-width:6;stroke-linecap:round;stroke-linejoin:round;stroke-opacity:1"
     id="g254"
     transform="translate(-4041.4444,-2552.4446)">
    <path
       d="m 4352,2811 20,60"
       id="path256"
       inkscape:connector-curvature="0" />
    <path
       d="m 4372,2871 20,-60"
       id="path258"
       inkscape:connector-curvature="0" />
    <g
       style="stroke-linecap:round"
       id="g260">
      <path
         d="m 4392,2811 0,0"
         id="path262"
         inkscape:connector-curvature="0" />
    </g>
    <path
       d="m 4443,2871 -35,0"
       id="path264"
       inkscape:connector-curvature="0" />
    <g
       style="stroke-linecap:round"
       id="g266">
      <path
         d="m 4408,2871 0,0"
         id="path268"
         inkscape:connector-curvature="0" />
    </g>
    <path
       d="m 4426,2871 0,-60"
       id="path270"
       inkscape:connector-curvature="0" />
    <path
       d="m 4426,2811 -6,9"
       id="path272"
       inkscape:connector-curvature="0" />
    <path
       d="m 4420,2820 -6,6"
       id="path274"
       inkscape:connector-curvature="0" />
    <path
       d="m 4414,2826 -6,2"
       id="path276"
       inkscape:connector-curvature="0" />
    <g
       style="stroke-linecap:round"
       id="g278">
      <path
         d="m 4408,2828 0,0"
         id="path280"
         inkscape:connector-curvature="0" />
    </g>
    <path
       d="m 4386,2604 29,0"
       id="path282"
       inkscape:connector-curvature="0" />
    <g
       style="stroke-linecap:round"
       id="g284">
      <path
         d="m 4415,2604 0,0"
         id="path286"
         inkscape:connector-curvature="0" />
    </g>
    <path
       d="m 4381,2621 20,-60"
       id="path288"
       inkscape:connector-curvature="0" />
    <path
       d="m 4401,2561 20,60"
       id="path290"
       inkscape:connector-curvature="0" />
    <g
       style="stroke-linecap:round"
       id="g292">
      <path
         d="m 4421,2621 0,0"
         id="path294"
         inkscape:connector-curvature="0" />
    </g>
    <path
       d="m 4475,2616 -3,2"
       id="path296"
       inkscape:connector-curvature="0" />
    <path
       d="m 4472,2618 -9,3"
       id="path298"
       inkscape:connector-curvature="0" />
    <path
       d="m 4463,2621 -6,0"
       id="path300"
       inkscape:connector-curvature="0" />
    <path
       d="m 4457,2621 -8,-3"
       id="path302"
       inkscape:connector-curvature="0" />
    <path
       d="m 4449,2618 -6,-5"
       id="path304"
       inkscape:connector-curvature="0" />
    <path
       d="m 4443,2613 -3,-6"
       id="path306"
       inkscape:connector-curvature="0" />
    <path
       d="m 4440,2607 -3,-11"
       id="path308"
       inkscape:connector-curvature="0" />
    <path
       d="m 4437,2596 0,-9"
       id="path310"
       inkscape:connector-curvature="0" />
    <path
       d="m 4437,2587 3,-11"
       id="path312"
       inkscape:connector-curvature="0" />
    <path
       d="m 4440,2576 3,-6"
       id="path314"
       inkscape:connector-curvature="0" />
    <path
       d="m 4443,2570 6,-6"
       id="path316"
       inkscape:connector-curvature="0" />
    <path
       d="m 4449,2564 8,-3"
       id="path318"
       inkscape:connector-curvature="0" />
    <path
       d="m 4457,2561 6,0"
       id="path320"
       inkscape:connector-curvature="0" />
    <path
       d="m 4463,2561 9,3"
       id="path322"
       inkscape:connector-curvature="0" />
    <path
       d="m 4472,2564 3,3"
       id="path324"
       inkscape:connector-curvature="0" />
    <g
       style="stroke-linecap:round"
       id="g326">
      <path
         d="m 4475,2567 0,0"
         id="path328"
         inkscape:connector-curvature="0" />
    </g>
    <path
       d="m 4497,2618 9,3"
       id="path330"
       inkscape:connector-curvature="0" />
    <path
       d="m 4506,2621 14,0"
       id="path332"
       inkscape:connector-curvature="0" />
    <path
       d="m 4520,2621 6,-3"
       id="path334"
       inkscape:connector-curvature="0" />
    <path
       d="m 4526,2618 3,-2"
       id="path336"
       inkscape:connector-curvature="0" />
    <path
       d="m 4529,2616 3,-6"
       id="path338"
       inkscape:connector-curvature="0" />
    <path
       d="m 4532,2610 0,-6"
       id="path340"
       inkscape:connector-curvature="0" />
    <path
       d="m 4532,2604 -3,-6"
       id="path342"
       inkscape:connector-curvature="0" />
    <path
       d="m 4529,2598 -3,-2"
       id="path344"
       inkscape:connector-curvature="0" />
    <path
       d="m 4526,2596 -6,-3"
       id="path346"
       inkscape:connector-curvature="0" />
    <path
       d="m 4520,2593 -11,-3"
       id="path348"
       inkscape:connector-curvature="0" />
    <path
       d="m 4509,2590 -6,-3"
       id="path350"
       inkscape:connector-curvature="0" />
    <path
       d="m 4503,2587 -3,-3"
       id="path352"
       inkscape:connector-curvature="0" />
    <path
       d="m 4500,2584 -3,-6"
       id="path354"
       inkscape:connector-curvature="0" />
    <path
       d="m 4497,2578 0,-5"
       id="path356"
       inkscape:connector-curvature="0" />
    <path
       d="m 4497,2573 3,-6"
       id="path358"
       inkscape:connector-curvature="0" />
    <path
       d="m 4500,2567 3,-3"
       id="path360"
       inkscape:connector-curvature="0" />
    <path
       d="m 4503,2564 6,-3"
       id="path362"
       inkscape:connector-curvature="0" />
    <path
       d="m 4509,2561 14,0"
       id="path364"
       inkscape:connector-curvature="0" />
    <path
       d="m 4523,2561 9,3"
       id="path366"
       inkscape:connector-curvature="0" />
    <g
       style="stroke-linecap:round"
       id="g368">
      <path
         d="m 4532,2564 0,0"
         id="path370"
         inkscape:connector-curvature="0" />
    </g>
    <path
       d="m 4557,2561 0,49"
       id="path372"
       inkscape:connector-curvature="0" />
    <path
       d="m 4557,2610 3,6"
       id="path374"
       inkscape:connector-curvature="0" />
    <path
       d="m 4560,2616 3,2"
       id="path376"
       inkscape:connector-curvature="0" />
    <path
       d="m 4563,2618 6,3"
       id="path378"
       inkscape:connector-curvature="0" />
    <path
       d="m 4569,2621 11,0"
       id="path380"
       inkscape:connector-curvature="0" />
    <path
       d="m 4580,2621 6,-3"
       id="path382"
       inkscape:connector-curvature="0" />
    <path
       d="m 4586,2618 3,-2"
       id="path384"
       inkscape:connector-curvature="0" />
    <path
       d="m 4589,2616 3,-6"
       id="path386"
       inkscape:connector-curvature="0" />
    <path
       d="m 4592,2610 0,-49"
       id="path388"
       inkscape:connector-curvature="0" />
    <g
       style="stroke-linecap:round"
       id="g390">
      <path
         d="m 4592,2561 0,0"
         id="path392"
         inkscape:connector-curvature="0" />
    </g>
    <path
       d="m 4620,2621 0,-60"
       id="path394"
       inkscape:connector-curvature="0" />
    <path
       d="m 4620,2561 23,0"
       id="path396"
       inkscape:connector-curvature="0" />
    <path
       d="m 4643,2561 6,3"
       id="path398"
       inkscape:connector-curvature="0" />
    <path
       d="m 4649,2564 3,3"
       id="path400"
       inkscape:connector-curvature="0" />
    <path
       d="m 4652,2567 3,6"
       id="path402"
       inkscape:connector-curvature="0" />
    <path
       d="m 4655,2573 0,8"
       id="path404"
       inkscape:connector-curvature="0" />
    <path
       d="m 4655,2581 -3,6"
       id="path406"
       inkscape:connector-curvature="0" />
    <path
       d="m 4652,2587 -3,3"
       id="path408"
       inkscape:connector-curvature="0" />
    <path
       d="m 4649,2590 -6,3"
       id="path410"
       inkscape:connector-curvature="0" />
    <path
       d="m 4643,2593 -23,0"
       id="path412"
       inkscape:connector-curvature="0" />
    <g
       style="stroke-linecap:round"
       id="g414">
      <path
         d="m 4620,2593 0,0"
         id="path416"
         inkscape:connector-curvature="0" />
    </g>
    <path
       d="m 4680,2621 0,-60"
       id="path418"
       inkscape:connector-curvature="0" />
    <path
       d="m 4680,2561 23,0"
       id="path420"
       inkscape:connector-curvature="0" />
    <path
       d="m 4703,2561 6,3"
       id="path422"
       inkscape:connector-curvature="0" />
    <path
       d="m 4709,2564 3,3"
       id="path424"
       inkscape:connector-curvature="0" />
    <path
       d="m 4712,2567 3,6"
       id="path426"
       inkscape:connector-curvature="0" />
    <path
       d="m 4715,2573 0,8"
       id="path428"
       inkscape:connector-curvature="0" />
    <path
       d="m 4715,2581 -3,6"
       id="path430"
       inkscape:connector-curvature="0" />
    <path
       d="m 4712,2587 -3,3"
       id="path432"
       inkscape:connector-curvature="0" />
    <path
       d="m 4709,2590 -6,3"
       id="path434"
       inkscape:connector-curvature="0" />
    <path
       d="m 4703,2593 -23,0"
       id="path436"
       inkscape:connector-curvature="0" />
    <g
       style="stroke-linecap:round"
       id="g438">
      <path
         d="m 4680,2593 0,0"
         id="path440"
         inkscape:connector-curvature="0" />
    </g>
    <path
       d="m 4769,2621 -29,0"
       id="path442"
       inkscape:connector-curvature="0" />
    <path
       d="m 4740,2621 0,-60"
       id="path444"
       inkscape:connector-curvature="0" />
    <g
       style="stroke-linecap:round"
       id="g446">
      <path
         d="m 4740,2561 0,0"
         id="path448"
         inkscape:connector-curvature="0" />
    </g>
    <path
       d="m 4801,2593 0,28"
       id="path450"
       inkscape:connector-curvature="0" />
    <g
       style="stroke-linecap:round"
       id="g452">
      <path
         d="m 4801,2621 0,0"
         id="path454"
         inkscape:connector-curvature="0" />
    </g>
    <path
       d="m 4781,2561 20,32"
       id="path456"
       inkscape:connector-curvature="0" />
    <path
       d="m 4801,2593 20,-32"
       id="path458"
       inkscape:connector-curvature="0" />
    <g
       style="stroke-linecap:round"
       id="g460">
      <path
         d="m 4821,2561 0,0"
         id="path462"
         inkscape:connector-curvature="0" />
    </g>
  </g>
  <g
     style="fill:#000000;fill-opacity:0;stroke:#a00000;stroke-width:12;stroke-linecap:round;stroke-linejoin:round;stroke-opacity:1"
     id="g464"
     transform="translate(-4041.4444,-2552.4446)">
    <polygon
       style="fill-rule:evenodd"
       points="5250,2840 5250,2760 5550,2760 5550,2760 5550,2840 "
       id="polygon466" />
  </g>
  <g
     style="fill:#000000;fill-opacity:0;stroke:#a00000;stroke-width:6;stroke-linecap:round;stroke-linejoin:round;stroke-opacity:1"
     id="g468"
     transform="translate(-4041.4444,-2552.4446)">
    <path
       d="m 5550,2800 100,0"
       id="path470"
       inkscape:connector-curvature="0" />
    <path
       d="m 5250,2800 -100,0"
       id="path472"
       inkscape:connector-curvature="0" />
  </g>
  <g
     style="fill:#00a0a0;fill-opacity:0;stroke:#00a0a0;stroke-width:6;stroke-linecap:round;stroke-linejoin:round;stroke-opacity:1"
     id="g474"
     transform="translate(-4041.4444,-2552.4446)">
    <path
       d="m 5391,2897 -16,-24"
       id="path476"
       inkscape:connector-curvature="0" />
    <g
       style="stroke-linecap:round"
       id="g478">
      <path
         d="m 5375,2873 0,0"
         id="path480"
         inkscape:connector-curvature="0" />
    </g>
    <path
       d="m 5363,2897 0,-50"
       id="path482"
       inkscape:connector-curvature="0" />
    <path
       d="m 5363,2847 19,0"
       id="path484"
       inkscape:connector-curvature="0" />
    <path
       d="m 5382,2847 5,3"
       id="path486"
       inkscape:connector-curvature="0" />
    <path
       d="m 5387,2850 2,2"
       id="path488"
       inkscape:connector-curvature="0" />
    <path
       d="m 5389,2852 2,5"
       id="path490"
       inkscape:connector-curvature="0" />
    <path
       d="m 5391,2857 0,7"
       id="path492"
       inkscape:connector-curvature="0" />
    <path
       d="m 5391,2864 -2,5"
       id="path494"
       inkscape:connector-curvature="0" />
    <path
       d="m 5389,2869 -2,2"
       id="path496"
       inkscape:connector-curvature="0" />
    <path
       d="m 5387,2871 -5,2"
       id="path498"
       inkscape:connector-curvature="0" />
    <path
       d="m 5382,2873 -19,0"
       id="path500"
       inkscape:connector-curvature="0" />
    <g
       style="stroke-linecap:round"
       id="g502">
      <path
         d="m 5363,2873 0,0"
         id="path504"
         inkscape:connector-curvature="0" />
    </g>
    <path
       d="m 5439,2897 -28,0"
       id="path506"
       inkscape:connector-curvature="0" />
    <g
       style="stroke-linecap:round"
       id="g508">
      <path
         d="m 5411,2897 0,0"
         id="path510"
         inkscape:connector-curvature="0" />
    </g>
    <path
       d="m 5425,2897 0,-50"
       id="path512"
       inkscape:connector-curvature="0" />
    <path
       d="m 5425,2847 -5,7"
       id="path514"
       inkscape:connector-curvature="0" />
    <path
       d="m 5420,2854 -5,5"
       id="path516"
       inkscape:connector-curvature="0" />
    <path
       d="m 5415,2859 -4,3"
       id="path518"
       inkscape:connector-curvature="0" />
    <g
       style="stroke-linecap:round"
       id="g520">
      <path
         d="m 5411,2862 0,0"
         id="path522"
         inkscape:connector-curvature="0" />
    </g>
    <path
       d="m 5415,2817 -16,-24"
       id="path524"
       inkscape:connector-curvature="0" />
    <g
       style="stroke-linecap:round"
       id="g526">
      <path
         d="m 5399,2793 0,0"
         id="path528"
         inkscape:connector-curvature="0" />
    </g>
    <path
       d="m 5387,2817 0,-50"
       id="path530"
       inkscape:connector-curvature="0" />
    <path
       d="m 5387,2767 19,0"
       id="path532"
       inkscape:connector-curvature="0" />
    <path
       d="m 5406,2767 5,3"
       id="path534"
       inkscape:connector-curvature="0" />
    <path
       d="m 5411,2770 2,2"
       id="path536"
       inkscape:connector-curvature="0" />
    <path
       d="m 5413,2772 2,5"
       id="path538"
       inkscape:connector-curvature="0" />
    <path
       d="m 5415,2777 0,7"
       id="path540"
       inkscape:connector-curvature="0" />
    <path
       d="m 5415,2784 -2,5"
       id="path542"
       inkscape:connector-curvature="0" />
    <path
       d="m 5413,2789 -2,2"
       id="path544"
       inkscape:connector-curvature="0" />
    <path
       d="m 5411,2791 -5,2"
       id="path546"
       inkscape:connector-curvature="0" />
    <path
       d="m 5406,2793 -19,0"
       id="path548"
       inkscape:connector-curvature="0" />
    <g
       style="stroke-linecap:round"
       id="g550">
      <path
         d="m 5387,2793 0,0"
         id="path552"
         inkscape:connector-curvature="0" />
    </g>
  </g>
</svg>
