<?xml version="1.0" encoding="UTF-8" standalone="no"?>
<svg
   xmlns:dc="http://purl.org/dc/elements/1.1/"
   xmlns:cc="http://creativecommons.org/ns#"
   xmlns:rdf="http://www.w3.org/1999/02/22-rdf-syntax-ns#"
   xmlns:svg="http://www.w3.org/2000/svg"
   xmlns="http://www.w3.org/2000/svg"
   xmlns:sodipodi="http://sodipodi.sourceforge.net/DTD/sodipodi-0.dtd"
   xmlns:inkscape="http://www.inkscape.org/namespaces/inkscape"
   version="1.1"
   width="234.94"
   height="77.620003"
   viewBox="0 0 2610.4445 862.44444"
   id="svg2"
   inkscape:version="0.48.1 r9760"
   sodipodi:docname="switch-circuit.svg">
  <metadata
     id="metadata600">
    <rdf:RDF>
      <cc:Work
         rdf:about="">
        <dc:format>image/svg+xml</dc:format>
        <dc:type
           rdf:resource="http://purl.org/dc/dcmitype/StillImage" />
      </cc:Work>
    </rdf:RDF>
  </metadata>
  <defs
     id="defs598" />
  <sodipodi:namedview
     pagecolor="#ffffff"
     bordercolor="#666666"
     borderopacity="1"
     objecttolerance="10"
     gridtolerance="10"
     guidetolerance="10"
     inkscape:pageopacity="0"
     inkscape:pageshadow="2"
     inkscape:window-width="1866"
     inkscape:window-height="1023"
     id="namedview596"
     showgrid="false"
     inkscape:zoom="6.0642714"
     inkscape:cx="48.381318"
     inkscape:cy="35.198481"
     inkscape:window-x="0"
     inkscape:window-y="26"
     inkscape:window-maximized="1"
     inkscape:current-layer="svg2"
     fit-margin-top="0.2"
     fit-margin-right="0.2"
     fit-margin-bottom="0.2"
     fit-margin-left="0.2" />
  <title
     id="title4">SVG Picture created as file4F4D8697.svg </title>
  <desc
     id="desc6">Picture generated by wxSVG v0101 </desc>
  <g
     style="fill:#000000;stroke:#000000;stroke-width:1"
     id="g8"
     transform="translate(-3044.7778,-1055.7779)" />
  <g
     style="fill:#00a000;fill-opacity:1;stroke:#00a000;stroke-width:0;stroke-linecap:round;stroke-linejoin:round;stroke-opacity:1"
     id="g10"
     transform="translate(-3044.7778,-1055.7779)">
    <ellipse
       cx="4100"
       cy="1900"
       rx="16"
       ry="16"
       id="ellipse12"
       sodipodi:cx="4100"
       sodipodi:cy="1900"
       sodipodi:rx="16"
       sodipodi:ry="16"
       d="m 4116,1900 c 0,8.8366 -7.1634,16 -16,16 -8.8366,0 -16,-7.1634 -16,-16 0,-8.8366 7.1634,-16 16,-16 8.8366,0 16,7.1634 16,16 z" />
  </g>
  <g
     style="fill:#00a000;fill-opacity:1;stroke:#00a000;stroke-width:6;stroke-linecap:round;stroke-linejoin:round;stroke-opacity:1"
     id="g14"
     transform="translate(-3044.7778,-1055.7779)">
    <path
       d="m 4100,1900 0,-450"
       id="path16"
       inkscape:connector-curvature="0" />
    <path
       d="m 3850,1300 200,0"
       id="path18"
       inkscape:connector-curvature="0" />
    <path
       d="m 5150,1300 -100,0"
       id="path20"
       inkscape:connector-curvature="0" />
    <path
       d="m 4550,1300 -250,0"
       id="path22"
       inkscape:connector-curvature="0" />
    <path
       d="m 5550,1300 100,0"
       id="path24"
       inkscape:connector-curvature="0" />
    <path
       d="m 5650,1300 0,600"
       id="path26"
       inkscape:connector-curvature="0" />
    <path
       d="m 5650,1900 -2600,0"
       id="path28"
       inkscape:connector-curvature="0" />
    <path
       d="m 3050,1900 0,-600"
       id="path30"
       inkscape:connector-curvature="0" />
    <path
       d="m 3050,1300 100,0"
       id="path32"
       inkscape:connector-curvature="0" />
  </g>
  <g
     style="fill:#0000ff;fill-opacity:0;stroke:#0000ff;stroke-width:6;stroke-linecap:round;stroke-linejoin:round;stroke-opacity:1"
     id="g34"
     transform="translate(-3044.7778,-1055.7779)">
    <path
       d="m 4161,1231 9,3"
       id="path36"
       inkscape:connector-curvature="0" />
    <path
       d="m 4170,1234 14,0"
       id="path38"
       inkscape:connector-curvature="0" />
    <path
       d="m 4184,1234 6,-3"
       id="path40"
       inkscape:connector-curvature="0" />
    <path
       d="m 4190,1231 3,-2"
       id="path42"
       inkscape:connector-curvature="0" />
    <path
       d="m 4193,1229 3,-6"
       id="path44"
       inkscape:connector-curvature="0" />
    <path
       d="m 4196,1223 0,-6"
       id="path46"
       inkscape:connector-curvature="0" />
    <path
       d="m 4196,1217 -3,-6"
       id="path48"
       inkscape:connector-curvature="0" />
    <path
       d="m 4193,1211 -3,-2"
       id="path50"
       inkscape:connector-curvature="0" />
    <path
       d="m 4190,1209 -6,-3"
       id="path52"
       inkscape:connector-curvature="0" />
    <path
       d="m 4184,1206 -11,-3"
       id="path54"
       inkscape:connector-curvature="0" />
    <path
       d="m 4173,1203 -6,-3"
       id="path56"
       inkscape:connector-curvature="0" />
    <path
       d="m 4167,1200 -3,-3"
       id="path58"
       inkscape:connector-curvature="0" />
    <path
       d="m 4164,1197 -3,-6"
       id="path60"
       inkscape:connector-curvature="0" />
    <path
       d="m 4161,1191 0,-5"
       id="path62"
       inkscape:connector-curvature="0" />
    <path
       d="m 4161,1186 3,-6"
       id="path64"
       inkscape:connector-curvature="0" />
    <path
       d="m 4164,1180 3,-3"
       id="path66"
       inkscape:connector-curvature="0" />
    <path
       d="m 4167,1177 6,-3"
       id="path68"
       inkscape:connector-curvature="0" />
    <path
       d="m 4173,1174 14,0"
       id="path70"
       inkscape:connector-curvature="0" />
    <path
       d="m 4187,1174 9,3"
       id="path72"
       inkscape:connector-curvature="0" />
    <g
       style="stroke-linecap:round"
       id="g74">
      <path
         d="m 4196,1177 0,0"
         id="path76"
         inkscape:connector-curvature="0" />
    </g>
  </g>
  <g
     style="fill:#a00000;fill-opacity:0;stroke:#a00000;stroke-width:15;stroke-linecap:round;stroke-linejoin:round;stroke-opacity:1"
     id="g78"
     transform="translate(-3044.7778,-1055.7779)">
    <path
       d="m 3550,1200 0,200"
       id="path80"
       inkscape:connector-curvature="0" />
    <g
       style="stroke-linecap:round"
       id="g82">
      <path
         d="m 3550,1400 0,0"
         id="path84"
         inkscape:connector-curvature="0" />
    </g>
    <path
       d="m 3450,1250 0,100"
       id="path86"
       inkscape:connector-curvature="0" />
    <g
       style="stroke-linecap:round"
       id="g88">
      <path
         d="m 3450,1350 0,0"
         id="path90"
         inkscape:connector-curvature="0" />
    </g>
  </g>
  <g
     style="fill:#a00000;fill-opacity:0;stroke:#a00000;stroke-width:6;stroke-linecap:round;stroke-linejoin:round;stroke-opacity:1"
     id="g92"
     transform="translate(-3044.7778,-1055.7779)">
    <path
       d="m 3550,1300 300,0"
       id="path94"
       inkscape:connector-curvature="0" />
  </g>
  <g
     style="fill:#00a0a0;fill-opacity:0;stroke:#00a0a0;stroke-width:6;stroke-linecap:round;stroke-linejoin:round;stroke-opacity:1"
     id="g96"
     transform="translate(-3044.7778,-1055.7779)">
    <path
       d="m 3681,1266 38,0"
       id="path98"
       inkscape:connector-curvature="0" />
    <g
       style="stroke-linecap:round"
       id="g100">
      <path
         d="m 3719,1266 0,0"
         id="path102"
         inkscape:connector-curvature="0" />
    </g>
    <path
       d="m 3700,1285 0,-38"
       id="path104"
       inkscape:connector-curvature="0" />
    <g
       style="stroke-linecap:round"
       id="g106">
      <path
         d="m 3700,1247 0,0"
         id="path108"
         inkscape:connector-curvature="0" />
    </g>
  </g>
  <g
     style="fill:#00a0a0;fill-opacity:0;stroke:#a00000;stroke-width:6;stroke-linecap:round;stroke-linejoin:round;stroke-opacity:1"
     id="g110"
     transform="translate(-3044.7778,-1055.7779)">
    <path
       d="m 3450,1300 -300,0"
       id="path112"
       inkscape:connector-curvature="0" />
  </g>
  <g
     style="fill:#00a0a0;fill-opacity:0;stroke:#00a0a0;stroke-width:6;stroke-linecap:round;stroke-linejoin:round;stroke-opacity:1"
     id="g114"
     transform="translate(-3044.7778,-1055.7779)">
    <path
       d="m 3281,1266 38,0"
       id="path116"
       inkscape:connector-curvature="0" />
    <g
       style="stroke-linecap:round"
       id="g118">
      <path
         d="m 3319,1266 0,0"
         id="path120"
         inkscape:connector-curvature="0" />
    </g>
    <path
       d="m 3677,1521 0,-60"
       id="path122"
       inkscape:connector-curvature="0" />
    <path
       d="m 3677,1461 23,0"
       id="path124"
       inkscape:connector-curvature="0" />
    <path
       d="m 3700,1461 6,3"
       id="path126"
       inkscape:connector-curvature="0" />
    <path
       d="m 3706,1464 3,3"
       id="path128"
       inkscape:connector-curvature="0" />
    <path
       d="m 3709,1467 3,6"
       id="path130"
       inkscape:connector-curvature="0" />
    <path
       d="m 3712,1473 0,8"
       id="path132"
       inkscape:connector-curvature="0" />
    <path
       d="m 3712,1481 -3,6"
       id="path134"
       inkscape:connector-curvature="0" />
    <path
       d="m 3709,1487 -3,3"
       id="path136"
       inkscape:connector-curvature="0" />
    <path
       d="m 3706,1490 -6,3"
       id="path138"
       inkscape:connector-curvature="0" />
    <path
       d="m 3700,1493 -23,0"
       id="path140"
       inkscape:connector-curvature="0" />
    <g
       style="stroke-linecap:round"
       id="g142">
      <path
         d="m 3677,1493 0,0"
         id="path144"
         inkscape:connector-curvature="0" />
    </g>
    <path
       d="m 3734,1518 9,3"
       id="path146"
       inkscape:connector-curvature="0" />
    <path
       d="m 3743,1521 14,0"
       id="path148"
       inkscape:connector-curvature="0" />
    <path
       d="m 3757,1521 6,-3"
       id="path150"
       inkscape:connector-curvature="0" />
    <path
       d="m 3763,1518 3,-2"
       id="path152"
       inkscape:connector-curvature="0" />
    <path
       d="m 3766,1516 3,-6"
       id="path154"
       inkscape:connector-curvature="0" />
    <path
       d="m 3769,1510 0,-6"
       id="path156"
       inkscape:connector-curvature="0" />
    <path
       d="m 3769,1504 -3,-6"
       id="path158"
       inkscape:connector-curvature="0" />
    <path
       d="m 3766,1498 -3,-2"
       id="path160"
       inkscape:connector-curvature="0" />
    <path
       d="m 3763,1496 -6,-3"
       id="path162"
       inkscape:connector-curvature="0" />
    <path
       d="m 3757,1493 -11,-3"
       id="path164"
       inkscape:connector-curvature="0" />
    <path
       d="m 3746,1490 -6,-3"
       id="path166"
       inkscape:connector-curvature="0" />
    <path
       d="m 3740,1487 -3,-3"
       id="path168"
       inkscape:connector-curvature="0" />
    <path
       d="m 3737,1484 -3,-6"
       id="path170"
       inkscape:connector-curvature="0" />
    <path
       d="m 3734,1478 0,-5"
       id="path172"
       inkscape:connector-curvature="0" />
    <path
       d="m 3734,1473 3,-6"
       id="path174"
       inkscape:connector-curvature="0" />
    <path
       d="m 3737,1467 3,-3"
       id="path176"
       inkscape:connector-curvature="0" />
    <path
       d="m 3740,1464 6,-3"
       id="path178"
       inkscape:connector-curvature="0" />
    <path
       d="m 3746,1461 14,0"
       id="path180"
       inkscape:connector-curvature="0" />
    <path
       d="m 3760,1461 9,3"
       id="path182"
       inkscape:connector-curvature="0" />
    <g
       style="stroke-linecap:round"
       id="g184">
      <path
         d="m 3769,1464 0,0"
         id="path186"
         inkscape:connector-curvature="0" />
    </g>
    <path
       d="m 3826,1521 -35,0"
       id="path188"
       inkscape:connector-curvature="0" />
    <g
       style="stroke-linecap:round"
       id="g190">
      <path
         d="m 3791,1521 0,0"
         id="path192"
         inkscape:connector-curvature="0" />
    </g>
    <path
       d="m 3809,1521 0,-60"
       id="path194"
       inkscape:connector-curvature="0" />
    <path
       d="m 3809,1461 -6,9"
       id="path196"
       inkscape:connector-curvature="0" />
    <path
       d="m 3803,1470 -6,6"
       id="path198"
       inkscape:connector-curvature="0" />
    <path
       d="m 3797,1476 -6,2"
       id="path200"
       inkscape:connector-curvature="0" />
    <g
       style="stroke-linecap:round"
       id="g202">
      <path
         d="m 3791,1478 0,0"
         id="path204"
         inkscape:connector-curvature="0" />
    </g>
    <path
       d="m 3284,1121 0,-60"
       id="path206"
       inkscape:connector-curvature="0" />
    <path
       d="m 3284,1061 15,0"
       id="path208"
       inkscape:connector-curvature="0" />
    <path
       d="m 3299,1061 8,3"
       id="path210"
       inkscape:connector-curvature="0" />
    <path
       d="m 3307,1064 6,6"
       id="path212"
       inkscape:connector-curvature="0" />
    <path
       d="m 3313,1070 3,6"
       id="path214"
       inkscape:connector-curvature="0" />
    <path
       d="m 3316,1076 3,11"
       id="path216"
       inkscape:connector-curvature="0" />
    <path
       d="m 3319,1087 0,9"
       id="path218"
       inkscape:connector-curvature="0" />
    <path
       d="m 3319,1096 -3,11"
       id="path220"
       inkscape:connector-curvature="0" />
    <path
       d="m 3316,1107 -3,6"
       id="path222"
       inkscape:connector-curvature="0" />
    <path
       d="m 3313,1113 -6,5"
       id="path224"
       inkscape:connector-curvature="0" />
    <path
       d="m 3307,1118 -8,3"
       id="path226"
       inkscape:connector-curvature="0" />
    <path
       d="m 3299,1121 -15,0"
       id="path228"
       inkscape:connector-curvature="0" />
    <path
       d="m 3379,1116 -3,2"
       id="path230"
       inkscape:connector-curvature="0" />
    <path
       d="m 3376,1118 -9,3"
       id="path232"
       inkscape:connector-curvature="0" />
    <path
       d="m 3367,1121 -6,0"
       id="path234"
       inkscape:connector-curvature="0" />
    <path
       d="m 3361,1121 -8,-3"
       id="path236"
       inkscape:connector-curvature="0" />
    <path
       d="m 3353,1118 -6,-5"
       id="path238"
       inkscape:connector-curvature="0" />
    <path
       d="m 3347,1113 -3,-6"
       id="path240"
       inkscape:connector-curvature="0" />
    <path
       d="m 3344,1107 -3,-11"
       id="path242"
       inkscape:connector-curvature="0" />
    <path
       d="m 3341,1096 0,-9"
       id="path244"
       inkscape:connector-curvature="0" />
    <path
       d="m 3341,1087 3,-11"
       id="path246"
       inkscape:connector-curvature="0" />
    <path
       d="m 3344,1076 3,-6"
       id="path248"
       inkscape:connector-curvature="0" />
    <path
       d="m 3347,1070 6,-6"
       id="path250"
       inkscape:connector-curvature="0" />
    <path
       d="m 3353,1064 8,-3"
       id="path252"
       inkscape:connector-curvature="0" />
    <path
       d="m 3361,1061 6,0"
       id="path254"
       inkscape:connector-curvature="0" />
    <path
       d="m 3367,1061 9,3"
       id="path256"
       inkscape:connector-curvature="0" />
    <path
       d="m 3376,1064 3,3"
       id="path258"
       inkscape:connector-curvature="0" />
    <g
       style="stroke-linecap:round"
       id="g260">
      <path
         d="m 3379,1067 0,0"
         id="path262"
         inkscape:connector-curvature="0" />
    </g>
    <path
       d="m 3401,1118 9,3"
       id="path264"
       inkscape:connector-curvature="0" />
    <path
       d="m 3410,1121 14,0"
       id="path266"
       inkscape:connector-curvature="0" />
    <path
       d="m 3424,1121 6,-3"
       id="path268"
       inkscape:connector-curvature="0" />
    <path
       d="m 3430,1118 3,-2"
       id="path270"
       inkscape:connector-curvature="0" />
    <path
       d="m 3433,1116 3,-6"
       id="path272"
       inkscape:connector-curvature="0" />
    <path
       d="m 3436,1110 0,-6"
       id="path274"
       inkscape:connector-curvature="0" />
    <path
       d="m 3436,1104 -3,-6"
       id="path276"
       inkscape:connector-curvature="0" />
    <path
       d="m 3433,1098 -3,-2"
       id="path278"
       inkscape:connector-curvature="0" />
    <path
       d="m 3430,1096 -6,-3"
       id="path280"
       inkscape:connector-curvature="0" />
    <path
       d="m 3424,1093 -11,-3"
       id="path282"
       inkscape:connector-curvature="0" />
    <path
       d="m 3413,1090 -6,-3"
       id="path284"
       inkscape:connector-curvature="0" />
    <path
       d="m 3407,1087 -3,-3"
       id="path286"
       inkscape:connector-curvature="0" />
    <path
       d="m 3404,1084 -3,-6"
       id="path288"
       inkscape:connector-curvature="0" />
    <path
       d="m 3401,1078 0,-5"
       id="path290"
       inkscape:connector-curvature="0" />
    <path
       d="m 3401,1073 3,-6"
       id="path292"
       inkscape:connector-curvature="0" />
    <path
       d="m 3404,1067 3,-3"
       id="path294"
       inkscape:connector-curvature="0" />
    <path
       d="m 3407,1064 6,-3"
       id="path296"
       inkscape:connector-curvature="0" />
    <path
       d="m 3413,1061 14,0"
       id="path298"
       inkscape:connector-curvature="0" />
    <path
       d="m 3427,1061 9,3"
       id="path300"
       inkscape:connector-curvature="0" />
    <g
       style="stroke-linecap:round"
       id="g302">
      <path
         d="m 3436,1064 0,0"
         id="path304"
         inkscape:connector-curvature="0" />
    </g>
    <path
       d="m 3461,1061 0,49"
       id="path306"
       inkscape:connector-curvature="0" />
    <path
       d="m 3461,1110 3,6"
       id="path308"
       inkscape:connector-curvature="0" />
    <path
       d="m 3464,1116 3,2"
       id="path310"
       inkscape:connector-curvature="0" />
    <path
       d="m 3467,1118 6,3"
       id="path312"
       inkscape:connector-curvature="0" />
    <path
       d="m 3473,1121 11,0"
       id="path314"
       inkscape:connector-curvature="0" />
    <path
       d="m 3484,1121 6,-3"
       id="path316"
       inkscape:connector-curvature="0" />
    <path
       d="m 3490,1118 3,-2"
       id="path318"
       inkscape:connector-curvature="0" />
    <path
       d="m 3493,1116 3,-6"
       id="path320"
       inkscape:connector-curvature="0" />
    <path
       d="m 3496,1110 0,-49"
       id="path322"
       inkscape:connector-curvature="0" />
    <g
       style="stroke-linecap:round"
       id="g324">
      <path
         d="m 3496,1061 0,0"
         id="path326"
         inkscape:connector-curvature="0" />
    </g>
    <path
       d="m 3524,1121 0,-60"
       id="path328"
       inkscape:connector-curvature="0" />
    <path
       d="m 3524,1061 23,0"
       id="path330"
       inkscape:connector-curvature="0" />
    <path
       d="m 3547,1061 6,3"
       id="path332"
       inkscape:connector-curvature="0" />
    <path
       d="m 3553,1064 3,3"
       id="path334"
       inkscape:connector-curvature="0" />
    <path
       d="m 3556,1067 3,6"
       id="path336"
       inkscape:connector-curvature="0" />
    <path
       d="m 3559,1073 0,8"
       id="path338"
       inkscape:connector-curvature="0" />
    <path
       d="m 3559,1081 -3,6"
       id="path340"
       inkscape:connector-curvature="0" />
    <path
       d="m 3556,1087 -3,3"
       id="path342"
       inkscape:connector-curvature="0" />
    <path
       d="m 3553,1090 -6,3"
       id="path344"
       inkscape:connector-curvature="0" />
    <path
       d="m 3547,1093 -23,0"
       id="path346"
       inkscape:connector-curvature="0" />
    <g
       style="stroke-linecap:round"
       id="g348">
      <path
         d="m 3524,1093 0,0"
         id="path350"
         inkscape:connector-curvature="0" />
    </g>
    <path
       d="m 3584,1121 0,-60"
       id="path352"
       inkscape:connector-curvature="0" />
    <path
       d="m 3584,1061 23,0"
       id="path354"
       inkscape:connector-curvature="0" />
    <path
       d="m 3607,1061 6,3"
       id="path356"
       inkscape:connector-curvature="0" />
    <path
       d="m 3613,1064 3,3"
       id="path358"
       inkscape:connector-curvature="0" />
    <path
       d="m 3616,1067 3,6"
       id="path360"
       inkscape:connector-curvature="0" />
    <path
       d="m 3619,1073 0,8"
       id="path362"
       inkscape:connector-curvature="0" />
    <path
       d="m 3619,1081 -3,6"
       id="path364"
       inkscape:connector-curvature="0" />
    <path
       d="m 3616,1087 -3,3"
       id="path366"
       inkscape:connector-curvature="0" />
    <path
       d="m 3613,1090 -6,3"
       id="path368"
       inkscape:connector-curvature="0" />
    <path
       d="m 3607,1093 -23,0"
       id="path370"
       inkscape:connector-curvature="0" />
    <g
       style="stroke-linecap:round"
       id="g372">
      <path
         d="m 3584,1093 0,0"
         id="path374"
         inkscape:connector-curvature="0" />
    </g>
    <path
       d="m 3673,1121 -29,0"
       id="path376"
       inkscape:connector-curvature="0" />
    <path
       d="m 3644,1121 0,-60"
       id="path378"
       inkscape:connector-curvature="0" />
    <g
       style="stroke-linecap:round"
       id="g380">
      <path
         d="m 3644,1061 0,0"
         id="path382"
         inkscape:connector-curvature="0" />
    </g>
    <path
       d="m 3705,1093 0,28"
       id="path384"
       inkscape:connector-curvature="0" />
    <g
       style="stroke-linecap:round"
       id="g386">
      <path
         d="m 3705,1121 0,0"
         id="path388"
         inkscape:connector-curvature="0" />
    </g>
    <path
       d="m 3685,1061 20,32"
       id="path390"
       inkscape:connector-curvature="0" />
    <path
       d="m 3705,1093 20,-32"
       id="path392"
       inkscape:connector-curvature="0" />
    <g
       style="stroke-linecap:round"
       id="g394">
      <path
         d="m 3725,1061 0,0"
         id="path396"
         inkscape:connector-curvature="0" />
    </g>
  </g>
  <g
     style="fill:#000000;fill-opacity:0;stroke:#a00000;stroke-width:12;stroke-linecap:round;stroke-linejoin:round;stroke-opacity:1"
     id="g398"
     transform="translate(-3044.7778,-1055.7779)">
    <polygon
       style="fill-rule:evenodd"
       points="4650,1340 4650,1260 4950,1260 4950,1260 4950,1340 "
       id="polygon400" />
  </g>
  <g
     style="fill:#000000;fill-opacity:0;stroke:#a00000;stroke-width:6;stroke-linecap:round;stroke-linejoin:round;stroke-opacity:1"
     id="g402"
     transform="translate(-3044.7778,-1055.7779)">
    <path
       d="m 4950,1300 100,0"
       id="path404"
       inkscape:connector-curvature="0" />
    <path
       d="m 4650,1300 -100,0"
       id="path406"
       inkscape:connector-curvature="0" />
  </g>
  <g
     style="fill:#00a0a0;fill-opacity:0;stroke:#00a0a0;stroke-width:6;stroke-linecap:round;stroke-linejoin:round;stroke-opacity:1"
     id="g408"
     transform="translate(-3044.7778,-1055.7779)">
    <path
       d="m 4791,1397 -16,-24"
       id="path410"
       inkscape:connector-curvature="0" />
    <g
       style="stroke-linecap:round"
       id="g412">
      <path
         d="m 4775,1373 0,0"
         id="path414"
         inkscape:connector-curvature="0" />
    </g>
    <path
       d="m 4763,1397 0,-50"
       id="path416"
       inkscape:connector-curvature="0" />
    <path
       d="m 4763,1347 19,0"
       id="path418"
       inkscape:connector-curvature="0" />
    <path
       d="m 4782,1347 5,3"
       id="path420"
       inkscape:connector-curvature="0" />
    <path
       d="m 4787,1350 2,2"
       id="path422"
       inkscape:connector-curvature="0" />
    <path
       d="m 4789,1352 2,5"
       id="path424"
       inkscape:connector-curvature="0" />
    <path
       d="m 4791,1357 0,7"
       id="path426"
       inkscape:connector-curvature="0" />
    <path
       d="m 4791,1364 -2,5"
       id="path428"
       inkscape:connector-curvature="0" />
    <path
       d="m 4789,1369 -2,2"
       id="path430"
       inkscape:connector-curvature="0" />
    <path
       d="m 4787,1371 -5,2"
       id="path432"
       inkscape:connector-curvature="0" />
    <path
       d="m 4782,1373 -19,0"
       id="path434"
       inkscape:connector-curvature="0" />
    <g
       style="stroke-linecap:round"
       id="g436">
      <path
         d="m 4763,1373 0,0"
         id="path438"
         inkscape:connector-curvature="0" />
    </g>
    <path
       d="m 4839,1397 -28,0"
       id="path440"
       inkscape:connector-curvature="0" />
    <g
       style="stroke-linecap:round"
       id="g442">
      <path
         d="m 4811,1397 0,0"
         id="path444"
         inkscape:connector-curvature="0" />
    </g>
    <path
       d="m 4825,1397 0,-50"
       id="path446"
       inkscape:connector-curvature="0" />
    <path
       d="m 4825,1347 -5,7"
       id="path448"
       inkscape:connector-curvature="0" />
    <path
       d="m 4820,1354 -5,5"
       id="path450"
       inkscape:connector-curvature="0" />
    <path
       d="m 4815,1359 -4,3"
       id="path452"
       inkscape:connector-curvature="0" />
    <g
       style="stroke-linecap:round"
       id="g454">
      <path
         d="m 4811,1362 0,0"
         id="path456"
         inkscape:connector-curvature="0" />
    </g>
    <path
       d="m 4815,1317 -16,-24"
       id="path458"
       inkscape:connector-curvature="0" />
    <g
       style="stroke-linecap:round"
       id="g460">
      <path
         d="m 4799,1293 0,0"
         id="path462"
         inkscape:connector-curvature="0" />
    </g>
    <path
       d="m 4787,1317 0,-50"
       id="path464"
       inkscape:connector-curvature="0" />
    <path
       d="m 4787,1267 19,0"
       id="path466"
       inkscape:connector-curvature="0" />
    <path
       d="m 4806,1267 5,3"
       id="path468"
       inkscape:connector-curvature="0" />
    <path
       d="m 4811,1270 2,2"
       id="path470"
       inkscape:connector-curvature="0" />
    <path
       d="m 4813,1272 2,5"
       id="path472"
       inkscape:connector-curvature="0" />
    <path
       d="m 4815,1277 0,7"
       id="path474"
       inkscape:connector-curvature="0" />
    <path
       d="m 4815,1284 -2,5"
       id="path476"
       inkscape:connector-curvature="0" />
    <path
       d="m 4813,1289 -2,2"
       id="path478"
       inkscape:connector-curvature="0" />
    <path
       d="m 4811,1291 -5,2"
       id="path480"
       inkscape:connector-curvature="0" />
    <path
       d="m 4806,1293 -19,0"
       id="path482"
       inkscape:connector-curvature="0" />
    <g
       style="stroke-linecap:round"
       id="g484">
      <path
         d="m 4787,1293 0,0"
         id="path486"
         inkscape:connector-curvature="0" />
    </g>
  </g>
  <g
     style="fill:#a00000;fill-opacity:0;stroke:#a00000;stroke-width:20;stroke-linecap:round;stroke-linejoin:round;stroke-opacity:1"
     id="g488"
     transform="translate(-3044.7778,-1055.7779)">
    <path
       d="m 5320,1200 0,200"
       id="path490"
       inkscape:connector-curvature="0" />
    <g
       style="stroke-linecap:round"
       id="g492">
      <path
         d="m 5320,1400 0,0"
         id="path494"
         inkscape:connector-curvature="0" />
    </g>
    <path
       d="m 5380,1200 0,200"
       id="path496"
       inkscape:connector-curvature="0" />
    <g
       style="stroke-linecap:round"
       id="g498">
      <path
         d="m 5380,1400 0,0"
         id="path500"
         inkscape:connector-curvature="0" />
    </g>
  </g>
  <g
     style="fill:#a00000;fill-opacity:0;stroke:#a00000;stroke-width:6;stroke-linecap:round;stroke-linejoin:round;stroke-opacity:1"
     id="g502"
     transform="translate(-3044.7778,-1055.7779)">
    <path
       d="m 5380,1300 170,0"
       id="path504"
       inkscape:connector-curvature="0" />
    <path
       d="m 5320,1300 -170,0"
       id="path506"
       inkscape:connector-curvature="0" />
  </g>
  <g
     style="fill:#00a0a0;fill-opacity:0;stroke:#00a0a0;stroke-width:6;stroke-linecap:round;stroke-linejoin:round;stroke-opacity:1"
     id="g508"
     transform="translate(-3044.7778,-1055.7779)">
    <path
       d="m 5490,1362 -2,3"
       id="path510"
       inkscape:connector-curvature="0" />
    <path
       d="m 5488,1365 -7,2"
       id="path512"
       inkscape:connector-curvature="0" />
    <path
       d="m 5481,1367 -5,0"
       id="path514"
       inkscape:connector-curvature="0" />
    <path
       d="m 5476,1367 -7,-2"
       id="path516"
       inkscape:connector-curvature="0" />
    <path
       d="m 5469,1365 -5,-5"
       id="path518"
       inkscape:connector-curvature="0" />
    <path
       d="m 5464,1360 -2,-5"
       id="path520"
       inkscape:connector-curvature="0" />
    <path
       d="m 5462,1355 -2,-9"
       id="path522"
       inkscape:connector-curvature="0" />
    <path
       d="m 5460,1346 0,-7"
       id="path524"
       inkscape:connector-curvature="0" />
    <path
       d="m 5460,1339 2,-10"
       id="path526"
       inkscape:connector-curvature="0" />
    <path
       d="m 5462,1329 2,-5"
       id="path528"
       inkscape:connector-curvature="0" />
    <path
       d="m 5464,1324 5,-4"
       id="path530"
       inkscape:connector-curvature="0" />
    <path
       d="m 5469,1320 7,-3"
       id="path532"
       inkscape:connector-curvature="0" />
    <path
       d="m 5476,1317 5,0"
       id="path534"
       inkscape:connector-curvature="0" />
    <path
       d="m 5481,1317 7,3"
       id="path536"
       inkscape:connector-curvature="0" />
    <path
       d="m 5488,1320 2,2"
       id="path538"
       inkscape:connector-curvature="0" />
    <g
       style="stroke-linecap:round"
       id="g540">
      <path
         d="m 5490,1322 0,0"
         id="path542"
         inkscape:connector-curvature="0" />
    </g>
    <path
       d="m 5538,1367 -28,0"
       id="path544"
       inkscape:connector-curvature="0" />
    <g
       style="stroke-linecap:round"
       id="g546">
      <path
         d="m 5510,1367 0,0"
         id="path548"
         inkscape:connector-curvature="0" />
    </g>
    <path
       d="m 5524,1367 0,-50"
       id="path550"
       inkscape:connector-curvature="0" />
    <path
       d="m 5524,1317 -5,7"
       id="path552"
       inkscape:connector-curvature="0" />
    <path
       d="m 5519,1324 -5,5"
       id="path554"
       inkscape:connector-curvature="0" />
    <path
       d="m 5514,1329 -4,3"
       id="path556"
       inkscape:connector-curvature="0" />
    <g
       style="stroke-linecap:round"
       id="g558">
      <path
         d="m 5510,1332 0,0"
         id="path560"
         inkscape:connector-curvature="0" />
    </g>
    <path
       d="m 5290,1362 -2,3"
       id="path562"
       inkscape:connector-curvature="0" />
    <path
       d="m 5288,1365 -7,2"
       id="path564"
       inkscape:connector-curvature="0" />
    <path
       d="m 5281,1367 -5,0"
       id="path566"
       inkscape:connector-curvature="0" />
    <path
       d="m 5276,1367 -7,-2"
       id="path568"
       inkscape:connector-curvature="0" />
    <path
       d="m 5269,1365 -5,-5"
       id="path570"
       inkscape:connector-curvature="0" />
    <path
       d="m 5264,1360 -2,-5"
       id="path572"
       inkscape:connector-curvature="0" />
    <path
       d="m 5262,1355 -2,-9"
       id="path574"
       inkscape:connector-curvature="0" />
    <path
       d="m 5260,1346 0,-7"
       id="path576"
       inkscape:connector-curvature="0" />
    <path
       d="m 5260,1339 2,-10"
       id="path578"
       inkscape:connector-curvature="0" />
    <path
       d="m 5262,1329 2,-5"
       id="path580"
       inkscape:connector-curvature="0" />
    <path
       d="m 5264,1324 5,-4"
       id="path582"
       inkscape:connector-curvature="0" />
    <path
       d="m 5269,1320 7,-3"
       id="path584"
       inkscape:connector-curvature="0" />
    <path
       d="m 5276,1317 5,0"
       id="path586"
       inkscape:connector-curvature="0" />
    <path
       d="m 5281,1317 7,3"
       id="path588"
       inkscape:connector-curvature="0" />
    <path
       d="m 5288,1320 2,2"
       id="path590"
       inkscape:connector-curvature="0" />
    <g
       style="stroke-linecap:round"
       id="g592">
      <path
         d="m 5290,1322 0,0"
         id="path594"
         inkscape:connector-curvature="0" />
    </g>
  </g>
  <path
     style="fill:#000000;stroke:#00a000;stroke-width:0.50000001000000005;stroke-linecap:butt;stroke-linejoin:miter;stroke-opacity:1;stroke-miterlimit:4;stroke-dasharray:none;fill-opacity:1"
     d="M 112.95669,21.883711 C 90.200449,29.469123 90.365349,29.469123 90.365349,29.469123"
     id="path3577"
     inkscape:connector-curvature="0"
     transform="matrix(11.111111,0,0,11.111111,0,-2.21772e-5)" />
</svg>
