<?xml version="1.0" standalone="no"?>
<!DOCTYPE svg PUBLIC "-//W3C//DTD SVG 1.1//EN" 
"http://www.w3.org/Graphics/SVG/1.1/DTD/svg11.dtd"> 
<svg
  xmlns="http://www.w3.org/2000/svg"
  version="1.1"
  width="11.7in" height="8.267in" viewBox="0 0 11700 8267 "
>
  <title>SVG Picture created as parallel.svg </title>
  <desc>Picture generated by wxSVG v0101 </desc>
  <g style="fill:black; stroke:black; stroke-width:1">
</g>
<g style="fill:#00A000; fill-opacity:1.0; 
  stroke:#00A000; stroke-linecap:round; stroke-linejoin:round; stroke-opacity:1.0; stroke-opacity:1.0; stroke-width:0" 
   transform="translate(0 0) scale(1 1)">
<ellipse cx="1600" cy="2150" rx="16" ry="16"  /> 
</g>
<g style="fill:#00A000; fill-opacity:1.0; 
  stroke:#00A000; stroke-linecap:round; stroke-linejoin:round; stroke-opacity:1.0; stroke-opacity:1.0; stroke-width:6" 
   transform="translate(0 0) scale(1 1)">
<path d="M1600 2150 L1700 2150" /> 
<path d="M1600 2000 L1600 2300" /> 
<path d="M1100 2000 L1100 2300" /> 
<path d="M1100 2150 L1000 2150" /> 
</g>
<g style="fill:#00A000; fill-opacity:1.0; 
  stroke:#00A000; stroke-linecap:round; stroke-linejoin:round; stroke-opacity:1.0; stroke-opacity:1.0; stroke-width:0" 
   transform="translate(0 0) scale(1 1)">
<ellipse cx="1100" cy="2150" rx="16" ry="16"  /> 
</g>
<g style="fill:#000000; fill-opacity:0.0; 
  stroke:#A00000; stroke-linecap:round; stroke-linejoin:round; stroke-opacity:1.0; stroke-opacity:1.0; stroke-width:12" 
   transform="translate(0 0) scale(1 1)">
<polygon style="fill-rule:evenodd; " 
points="1500,2260
1500,2260
1500,2340
1200,2340
1200,2260
" /> 
</g>
<g style="fill:#000000; fill-opacity:0.0; 
  stroke:#A00000; stroke-linecap:round; stroke-linejoin:round; stroke-opacity:1.0; stroke-opacity:1.0; stroke-width:6" 
   transform="translate(0 0) scale(1 1)">
<path d="M1500 2300 L1600 2300" /> 
<path d="M1200 2300 L1100 2300" /> 
</g>
<g style="fill:#00A0A0; fill-opacity:0.0; 
  stroke:#00A0A0; stroke-linecap:round; stroke-linejoin:round; stroke-opacity:1.0; stroke-opacity:1.0; stroke-width:6" 
   transform="translate(0 0) scale(1 1)">
<path d="M1341 2400 L1325 2376" /> 
<g style = "stroke-linecap:round;" > 
<path d="M1325 2376 L1325 2376" /> 
</g><path d="M1313 2400 L1313 2350" /> 
<path d="M1313 2350 L1332 2350" /> 
<path d="M1332 2350 L1337 2353" /> 
<path d="M1337 2353 L1339 2355" /> 
<path d="M1339 2355 L1341 2360" /> 
<path d="M1341 2360 L1341 2367" /> 
<path d="M1341 2367 L1339 2372" /> 
<path d="M1339 2372 L1337 2374" /> 
<path d="M1337 2374 L1332 2376" /> 
<path d="M1332 2376 L1313 2376" /> 
<g style = "stroke-linecap:round;" > 
<path d="M1313 2376 L1313 2376" /> 
</g><path d="M1361 2355 L1363 2353" /> 
<path d="M1363 2353 L1368 2350" /> 
<path d="M1368 2350 L1380 2350" /> 
<path d="M1380 2350 L1384 2353" /> 
<path d="M1384 2353 L1387 2355" /> 
<path d="M1387 2355 L1389 2360" /> 
<path d="M1389 2360 L1389 2365" /> 
<path d="M1389 2365 L1387 2372" /> 
<path d="M1387 2372 L1358 2400" /> 
<path d="M1358 2400 L1389 2400" /> 
<g style = "stroke-linecap:round;" > 
<path d="M1389 2400 L1389 2400" /> 
</g><path d="M1365 2320 L1349 2296" /> 
<g style = "stroke-linecap:round;" > 
<path d="M1349 2296 L1349 2296" /> 
</g><path d="M1337 2320 L1337 2270" /> 
<path d="M1337 2270 L1356 2270" /> 
<path d="M1356 2270 L1361 2273" /> 
<path d="M1361 2273 L1363 2275" /> 
<path d="M1363 2275 L1365 2280" /> 
<path d="M1365 2280 L1365 2287" /> 
<path d="M1365 2287 L1363 2292" /> 
<path d="M1363 2292 L1361 2294" /> 
<path d="M1361 2294 L1356 2296" /> 
<path d="M1356 2296 L1337 2296" /> 
<g style = "stroke-linecap:round;" > 
<path d="M1337 2296 L1337 2296" /> 
</g></g>
<g style="fill:#000000; fill-opacity:0.0; 
  stroke:#A00000; stroke-linecap:round; stroke-linejoin:round; stroke-opacity:1.0; stroke-opacity:1.0; stroke-width:12" 
   transform="translate(0 0) scale(1 1)">
<polygon style="fill-rule:evenodd; " 
points="1500,1960
1500,1960
1500,2040
1200,2040
1200,1960
" /> 
</g>
<g style="fill:#000000; fill-opacity:0.0; 
  stroke:#A00000; stroke-linecap:round; stroke-linejoin:round; stroke-opacity:1.0; stroke-opacity:1.0; stroke-width:6" 
   transform="translate(0 0) scale(1 1)">
<path d="M1500 2000 L1600 2000" /> 
<path d="M1200 2000 L1100 2000" /> 
</g>
<g style="fill:#00A0A0; fill-opacity:0.0; 
  stroke:#00A0A0; stroke-linecap:round; stroke-linejoin:round; stroke-opacity:1.0; stroke-opacity:1.0; stroke-width:6" 
   transform="translate(0 0) scale(1 1)">
<path d="M1341 2100 L1325 2076" /> 
<g style = "stroke-linecap:round;" > 
<path d="M1325 2076 L1325 2076" /> 
</g><path d="M1313 2100 L1313 2050" /> 
<path d="M1313 2050 L1332 2050" /> 
<path d="M1332 2050 L1337 2053" /> 
<path d="M1337 2053 L1339 2055" /> 
<path d="M1339 2055 L1341 2060" /> 
<path d="M1341 2060 L1341 2067" /> 
<path d="M1341 2067 L1339 2072" /> 
<path d="M1339 2072 L1337 2074" /> 
<path d="M1337 2074 L1332 2076" /> 
<path d="M1332 2076 L1313 2076" /> 
<g style = "stroke-linecap:round;" > 
<path d="M1313 2076 L1313 2076" /> 
</g><path d="M1389 2100 L1361 2100" /> 
<g style = "stroke-linecap:round;" > 
<path d="M1361 2100 L1361 2100" /> 
</g><path d="M1375 2100 L1375 2050" /> 
<path d="M1375 2050 L1370 2057" /> 
<path d="M1370 2057 L1365 2062" /> 
<path d="M1365 2062 L1361 2065" /> 
<g style = "stroke-linecap:round;" > 
<path d="M1361 2065 L1361 2065" /> 
</g><path d="M1365 2020 L1349 1996" /> 
<g style = "stroke-linecap:round;" > 
<path d="M1349 1996 L1349 1996" /> 
</g><path d="M1337 2020 L1337 1970" /> 
<path d="M1337 1970 L1356 1970" /> 
<path d="M1356 1970 L1361 1973" /> 
<path d="M1361 1973 L1363 1975" /> 
<path d="M1363 1975 L1365 1980" /> 
<path d="M1365 1980 L1365 1987" /> 
<path d="M1365 1987 L1363 1992" /> 
<path d="M1363 1992 L1361 1994" /> 
<path d="M1361 1994 L1356 1996" /> 
<path d="M1356 1996 L1337 1996" /> 
<g style = "stroke-linecap:round;" > 
<path d="M1337 1996 L1337 1996" /> 
</g></g> 
</svg> 
