<?xml version="1.0" standalone="no"?>
<!DOCTYPE svg PUBLIC "-//W3C//DTD SVG 1.1//EN" 
"http://www.w3.org/Graphics/SVG/1.1/DTD/svg11.dtd"> 
<svg
  xmlns="http://www.w3.org/2000/svg"
  version="1.1"
  width="11.7in" height="8.267in" viewBox="0 0 11700 8267 "
>
  <title>SVG Picture created as foo.svg </title>
  <desc>Picture generated by wxSVG v0101 </desc>
  <g style="fill:black; stroke:black; stroke-width:1">
</g>
<g style="fill:#000000; fill-opacity:0.0; 
  stroke:#A00000; stroke-linecap:round; stroke-linejoin:round; stroke-opacity:1.0; stroke-opacity:1.0; stroke-width:12" 
   transform="translate(0 0) scale(1 1)">
<polygon style="fill-rule:evenodd; " 
points="1550,2310
1550,2310
1550,2390
1250,2390
1250,2310
" /> 
</g>
<g style="fill:#000000; fill-opacity:0.0; 
  stroke:#A00000; stroke-linecap:round; stroke-linejoin:round; stroke-opacity:1.0; stroke-opacity:1.0; stroke-width:6" 
   transform="translate(0 0) scale(1 1)">
<path d="M1550 2350 L1650 2350" /> 
<path d="M1250 2350 L1150 2350" /> 
</g>
<g style="fill:#00A0A0; fill-opacity:0.0; 
  stroke:#00A0A0; stroke-linecap:round; stroke-linejoin:round; stroke-opacity:1.0; stroke-opacity:1.0; stroke-width:6" 
   transform="translate(0 0) scale(1 1)">
<path d="M1391 2450 L1375 2426" /> 
<g style = "stroke-linecap:round;" > 
<path d="M1375 2426 L1375 2426" /> 
</g><path d="M1363 2450 L1363 2400" /> 
<path d="M1363 2400 L1382 2400" /> 
<path d="M1382 2400 L1387 2403" /> 
<path d="M1387 2403 L1389 2405" /> 
<path d="M1389 2405 L1391 2410" /> 
<path d="M1391 2410 L1391 2417" /> 
<path d="M1391 2417 L1389 2422" /> 
<path d="M1389 2422 L1387 2424" /> 
<path d="M1387 2424 L1382 2426" /> 
<path d="M1382 2426 L1363 2426" /> 
<g style = "stroke-linecap:round;" > 
<path d="M1363 2426 L1363 2426" /> 
</g><path d="M1411 2405 L1413 2403" /> 
<path d="M1413 2403 L1418 2400" /> 
<path d="M1418 2400 L1430 2400" /> 
<path d="M1430 2400 L1434 2403" /> 
<path d="M1434 2403 L1437 2405" /> 
<path d="M1437 2405 L1439 2410" /> 
<path d="M1439 2410 L1439 2415" /> 
<path d="M1439 2415 L1437 2422" /> 
<path d="M1437 2422 L1408 2450" /> 
<path d="M1408 2450 L1439 2450" /> 
<g style = "stroke-linecap:round;" > 
<path d="M1439 2450 L1439 2450" /> 
</g><path d="M1415 2370 L1399 2346" /> 
<g style = "stroke-linecap:round;" > 
<path d="M1399 2346 L1399 2346" /> 
</g><path d="M1387 2370 L1387 2320" /> 
<path d="M1387 2320 L1406 2320" /> 
<path d="M1406 2320 L1411 2323" /> 
<path d="M1411 2323 L1413 2325" /> 
<path d="M1413 2325 L1415 2330" /> 
<path d="M1415 2330 L1415 2337" /> 
<path d="M1415 2337 L1413 2342" /> 
<path d="M1413 2342 L1411 2344" /> 
<path d="M1411 2344 L1406 2346" /> 
<path d="M1406 2346 L1387 2346" /> 
<g style = "stroke-linecap:round;" > 
<path d="M1387 2346 L1387 2346" /> 
</g></g>
<g style="fill:#000000; fill-opacity:0.0; 
  stroke:#A00000; stroke-linecap:round; stroke-linejoin:round; stroke-opacity:1.0; stroke-opacity:1.0; stroke-width:12" 
   transform="translate(0 0) scale(1 1)">
<polygon style="fill-rule:evenodd; " 
points="1050,2310
1050,2310
1050,2390
750,2390
750,2310
" /> 
</g>
<g style="fill:#000000; fill-opacity:0.0; 
  stroke:#A00000; stroke-linecap:round; stroke-linejoin:round; stroke-opacity:1.0; stroke-opacity:1.0; stroke-width:6" 
   transform="translate(0 0) scale(1 1)">
<path d="M1050 2350 L1150 2350" /> 
<path d="M750 2350 L650 2350" /> 
</g>
<g style="fill:#00A0A0; fill-opacity:0.0; 
  stroke:#00A0A0; stroke-linecap:round; stroke-linejoin:round; stroke-opacity:1.0; stroke-opacity:1.0; stroke-width:6" 
   transform="translate(0 0) scale(1 1)">
<path d="M891 2450 L875 2426" /> 
<g style = "stroke-linecap:round;" > 
<path d="M875 2426 L875 2426" /> 
</g><path d="M863 2450 L863 2400" /> 
<path d="M863 2400 L882 2400" /> 
<path d="M882 2400 L887 2403" /> 
<path d="M887 2403 L889 2405" /> 
<path d="M889 2405 L891 2410" /> 
<path d="M891 2410 L891 2417" /> 
<path d="M891 2417 L889 2422" /> 
<path d="M889 2422 L887 2424" /> 
<path d="M887 2424 L882 2426" /> 
<path d="M882 2426 L863 2426" /> 
<g style = "stroke-linecap:round;" > 
<path d="M863 2426 L863 2426" /> 
</g><path d="M939 2450 L911 2450" /> 
<g style = "stroke-linecap:round;" > 
<path d="M911 2450 L911 2450" /> 
</g><path d="M925 2450 L925 2400" /> 
<path d="M925 2400 L920 2407" /> 
<path d="M920 2407 L915 2412" /> 
<path d="M915 2412 L911 2415" /> 
<g style = "stroke-linecap:round;" > 
<path d="M911 2415 L911 2415" /> 
</g><path d="M915 2370 L899 2346" /> 
<g style = "stroke-linecap:round;" > 
<path d="M899 2346 L899 2346" /> 
</g><path d="M887 2370 L887 2320" /> 
<path d="M887 2320 L906 2320" /> 
<path d="M906 2320 L911 2323" /> 
<path d="M911 2323 L913 2325" /> 
<path d="M913 2325 L915 2330" /> 
<path d="M915 2330 L915 2337" /> 
<path d="M915 2337 L913 2342" /> 
<path d="M913 2342 L911 2344" /> 
<path d="M911 2344 L906 2346" /> 
<path d="M906 2346 L887 2346" /> 
<g style = "stroke-linecap:round;" > 
<path d="M887 2346 L887 2346" /> 
</g></g> 
</svg> 
