<?xml version="1.0" encoding="UTF-8" standalone="no"?>
<!-- Created with Inkscape (http://www.inkscape.org/) -->

<svg
   xmlns:dc="http://purl.org/dc/elements/1.1/"
   xmlns:cc="http://creativecommons.org/ns#"
   xmlns:rdf="http://www.w3.org/1999/02/22-rdf-syntax-ns#"
   xmlns:svg="http://www.w3.org/2000/svg"
   xmlns="http://www.w3.org/2000/svg"
   xmlns:sodipodi="http://sodipodi.sourceforge.net/DTD/sodipodi-0.dtd"
   xmlns:inkscape="http://www.inkscape.org/namespaces/inkscape"
   version="1.0"
   width="400"
   height="260"
   id="svg2"
   inkscape:version="0.48.1 r9760"
   sodipodi:docname="schematic_symbols.svg">
  <metadata
     id="metadata71">
    <rdf:RDF>
      <cc:Work
         rdf:about="">
        <dc:format>image/svg+xml</dc:format>
        <dc:type
           rdf:resource="http://purl.org/dc/dcmitype/StillImage" />
        <dc:title></dc:title>
      </cc:Work>
    </rdf:RDF>
  </metadata>
  <sodipodi:namedview
     pagecolor="#ffffff"
     bordercolor="#666666"
     borderopacity="1"
     objecttolerance="10"
     gridtolerance="10"
     guidetolerance="10"
     inkscape:pageopacity="0"
     inkscape:pageshadow="2"
     inkscape:window-width="1866"
     inkscape:window-height="1023"
     id="namedview69"
     showgrid="false"
     inkscape:zoom="15.165265"
     inkscape:cx="51.749667"
     inkscape:cy="151.18835"
     inkscape:window-x="0"
     inkscape:window-y="26"
     inkscape:window-maximized="1"
     inkscape:current-layer="svg2" />
  <defs
     id="defs4" />
  <path
     inkscape:connector-curvature="0"
     id="path4176"
     style="fill:none;stroke:#000000;stroke-width:2;stroke-linecap:butt;stroke-linejoin:miter;stroke-opacity:1"
     d="m 25.3118,110.51045 9.78958,0 c 0,0 -5.0572,-11.112495 2.469444,-11.288884 6.965448,-0.163237 6.17361,11.377084 3.96875,11.377084 -2.204861,0 -2.116667,-11.288889 3.61597,-11.288889 5.732638,0 6.614582,11.288879 3.439583,11.288879 -3.174999,0 -1.940277,-11.28888 3.704166,-11.28888 5.644443,0 6.790971,11.28889 3.263194,11.28889 -3.527777,0 -1.5875,-11.28889 3.968748,-11.28889 5.556249,0 4.850695,11.28888 2.998612,11.28888 -1.852083,0 9.436803,-0.0882 9.436803,-0.0882" />
  <path
     sodipodi:type="arc"
     style="fill:none;stroke:#000000;stroke-width:1.94413168;stroke-linecap:round;stroke-miterlimit:4;stroke-opacity:1;stroke-dasharray:none"
     id="path3112"
     sodipodi:cx="70.730843"
     sodipodi:cy="83.881149"
     sodipodi:rx="22.003052"
     sodipodi:ry="22.003052"
     d="m 92.733894,83.881149 a 22.003052,22.003052 0 1 1 -44.006103,0 22.003052,22.003052 0 1 1 44.006103,0 z"
     transform="matrix(1.0287369,0,0,1.0287369,-23.846768,23.369919)" />
  <path
     style="fill:none;stroke:#000000;stroke-width:2;stroke-linecap:square;stroke-linejoin:miter;stroke-miterlimit:4;stroke-opacity:1;stroke-dasharray:none"
     d="m 15.487127,110.41702 c 10.009972,0 9.632237,0 9.632237,0"
     id="path3882"
     inkscape:connector-curvature="0" />
  <path
     style="fill:none;stroke:#000000;stroke-width:2;stroke-linecap:square;stroke-linejoin:miter;stroke-miterlimit:4;stroke-opacity:1;stroke-dasharray:none"
     d="m 71.938227,110.51366 c 10.009972,0 9.632237,0 9.632237,0"
     id="path3882-1"
     inkscape:connector-curvature="0" />
</svg>
